/* XPM */
static char *_251dfb5d6bb4adbec2563dc63b2c78a9bnlPiiY5Kaj5tLx[] = {
/* columns rows colors chars-per-pixel */
"64 64 181 2 ",
"   c None",
".  c #020203",
"X  c #080703",
"o  c #0C0901",
"O  c #02050D",
"+  c #05080D",
"@  c #0D0C0D",
"#  c #100F0F",
"$  c #151003",
"%  c #10100F",
"&  c #18160E",
"*  c #1D1B0F",
"=  c #191507",
"-  c #030511",
";  c #040A12",
":  c #0C0D10",
">  c #020D19",
",  c #0F1112",
"<  c #06101A",
"1  c #0D131B",
"2  c #101213",
"3  c #191710",
"4  c #1C1B10",
"5  c #10161B",
"6  c #201802",
"7  c #231D0D",
"8  c #27200F",
"9  c #29260E",
"0  c #382D0B",
"q  c #372C0D",
"w  c #363109",
"e  c #3C320C",
"r  c #322E11",
"t  c #3C3411",
"y  c #3F3A12",
"u  c #343111",
"i  c #061322",
"p  c #0D1C2A",
"a  c #0A1624",
"s  c #061C33",
"d  c #061F3B",
"f  c #0A1D34",
"g  c #19262B",
"h  c #0A233C",
"j  c #112439",
"k  c #44360B",
"l  c #45390C",
"z  c #4F3D0A",
"x  c #443806",
"c  c #453E12",
"v  c #5D4804",
"b  c #53410A",
"n  c #59460A",
"m  c #574205",
"M  c #484112",
"N  c #5E5513",
"B  c #614A07",
"V  c #624B09",
"C  c #684F09",
"Z  c #6F5306",
"A  c #6C5308",
"S  c #695A02",
"D  c #735907",
"F  c #7A5D06",
"G  c #715608",
"H  c #775809",
"J  c #605614",
"K  c #6D610E",
"L  c #7F6205",
"P  c #7E6E00",
"I  c #6B6114",
"U  c #776A14",
"Y  c #7C7015",
"T  c #062444",
"R  c #06294E",
"E  c #062549",
"W  c #102A48",
"Q  c #072C56",
"!  c #092F59",
"~  c #102F50",
"^  c #07305D",
"/  c #022E6B",
"(  c #083669",
")  c #0D3A6B",
"_  c #013274",
"`  c #013579",
"'  c #0D4179",
"]  c #104177",
"[  c #104178",
"{  c #856703",
"}  c #816A02",
"|  c #8B6C03",
" . c #84650B",
".. c #8F6A0F",
"X. c #906F00",
"o. c #877404",
"O. c #8A7800",
"+. c #947400",
"@. c #997604",
"#. c #9D7A03",
"$. c #94710E",
"%. c #997708",
"&. c #9D7B0A",
"*. c #877915",
"=. c #A07B04",
"-. c #A47D0C",
";. c #A97E0E",
":. c #938101",
">. c #9B8614",
",. c #998811",
"<. c #AB850D",
"1. c #A98E01",
"2. c #B1870F",
"3. c #B1890F",
"4. c #B39B02",
"5. c #B99D04",
"6. c #B4920B",
"7. c #BB970F",
"8. c #B4980D",
"9. c #AD8311",
"0. c #A08E17",
"q. c #B38713",
"w. c #A99717",
"e. c #B99510",
"r. c #BDA501",
"t. c #BEA800",
"y. c #BAA315",
"u. c #BAA418",
"i. c #C3AB03",
"p. c #C5AD0A",
"a. c #CCB30C",
"s. c #D0B50E",
"d. c #CAAB16",
"f. c #C3A915",
"g. c #CAB418",
"h. c #D4BB15",
"j. c #D8BE15",
"k. c #D4BA18",
"l. c #DDC20A",
"z. c #DBC119",
"x. c #DEC41A",
"c. c #E1C71A",
"v. c #E5CB1A",
"b. c #E9CE1A",
"n. c #E2C817",
"m. c #EED31A",
"M. c #F3D61B",
"N. c #033A82",
"B. c #043F89",
"V. c #05418B",
"C. c #0C498C",
"Z. c #0B4585",
"A. c #0B4C96",
"S. c #094E9C",
"D. c #064794",
"F. c #0C519B",
"G. c #10549F",
"H. c #0952A3",
"J. c #0854AA",
"K. c #0E59AC",
"L. c #105AAB",
"P. c #0857B6",
"I. c #0D5DB4",
"U. c #095BBD",
"Y. c #105DB0",
"T. c #0E61BC",
"R. c #1060B7",
"E. c #1063BD",
"W. c #095DC1",
"Q. c #0E65C4",
"!. c #0F67C8",
"~. c #0F69CB",
"^. c #1066C4",
"/. c #1068C7",
"(. c #106BCD",
"). c #1870CE",
"_. c #106DD0",
"`. c #1972D1",
"'. c #277CD3",
"]. c #297ED5",
"[. c #2B80D6",
/* pixels */
"                                                                                                                                ",
"                                                                                                                                ",
"                                                                                                                                ",
"                                                                                                                                ",
"                                                                                                                                ",
"                                                                                                                                ",
"                                                                                                                                ",
"                                                                                                                                ",
"                                                  ; # :                                                                         ",
"                                              ; w l : O 2                                                                       ",
"                                            , - ,.l.u.Y 3                                                                       ",
"                                            # 3 >.5.x.b.c :                                                                     ",
"                                            : 0 Z  .3.y.2 - ; #                                                                 ",
"                                              7 k $.;.5.g.*.c #                                                                 ",
"                                              @ 3 +.=.d.j.v.m.c                                                                 ",
"                                            2 ; k #.=.;.7.a.g.2 ;                                                               ",
"                                            , , n H %.%.1.i.p.0.u                                                               ",
"                                              & V D +.+.<.f.j.m.N + :                                                           ",
"                                                : z | %.9.<.i.a.c + O 2                                                         ",
"                                              , : z A { =.6.t.p.c.w.I 3                                                         ",
"                                              : 7 Z Z +.+.<.3.p.k.c.M.U +                                                       ",
"                                              : l F Z G | 9.3.r.i.i.k.r O < 2                                                   ",
"                                                7 l A C { @.=.4.r.i.p.f.Y u 2                                                   ",
"                                                ; 3 Z A { +.+.| <.e.k.j.b.b.G                                                   ",
"                                              , ; k G A C F +.@.9.9.r.i.s.c.y O , @                                             ",
"                                          :   : @ V A L Z } +.&.9.6.r.r.r.i.>.c , O : 2 2                                       ",
"                                    ,   : - 0 V b F Z +.+.;.#.<.9.5.r.r.r.a.c.v.u.U r + + : :                                   ",
"                                    ; % n e V Z | +.%.#.-.9.6.r.5.r.r.t.r.r.a.k.z.b.z.w.J * - %                                 ",
"                              , : q k r G  .@.| +.+.2.3.9.2.6.t.i.i.5.6.5.r.i.i.i.d.k.m.m.r.O.*                                 ",
"                              % : V F G Z F +.=.#.| { $.9.2.;.&.} :.%...F } S P | H V e G O.i.9 #                               ",
"                              % 2 7 k b B B B 0 v v m 8 & 0 z x 6 $ X o o o . . . X . . . . l ; #                               ",
"                              2 % 1 i i : = $ . . . . . . . O < p h Q ! ~ g + + + + @ + @ ;                                     ",
"                              2 2 a E h h p g d Q ) ' C.F.G.H.L.R.R.Q.^.^.E.h @ - + # : # :                                     ",
"                              2 % 1 ) L.K.K.U.T.Q.^./.(.(.(.(.(.(.~.(.(.~.R.j P.U.2 #                                           ",
"                                  2 p S.U./.Q.~.~.(.(.(.(.(.(.(.~._.(.(.(.).'.(./.5 %                                           ",
"                                  % 2 _ N.H.J.U.W.I.T.^././.(.(.(././.!./.(.`.(.Q., #                                           ",
"                                      2 1 _ _ H.J.!.~.(.(.(.(.(.(.~.).).).(.(.N.` 1 ,                                           ",
"                                      2 , _ _ H.J.!.~.(.(.~.(.'.[.].[.[.[.(./.D.H.h >                                           ",
"                                  % , / _ S.H._ _ ` ` J.J.J.J.(.~.(.(._.(.` ` C.T.^ . >                                         ",
"                                  % , _ ` H.H.` _ _ ` S.H.J.H.(._.~.(.(./.` N.E.Q.F.> O s                                       ",
"                                  % , S.H.U.U.!.~.~./.H.E.E.L.~._._._.~.~.W.W.~.!.T.R O >                                       ",
"                                  % 2 H.J.U.W._.(.(._.(.(.(.(.(.).~.~._.(.W.~.(.!./.Z.O O                                       ",
"                                  # 2 P.W.~.~._.~._.(.(.(.(.(.(._.~._._.(.W.(.(./.!.F.; .                                       ",
"                                  % 5 P.W.~._.~._.(.(._._.(._.(.~._._.~.(.W.(.(.Q.Q.S.; O                                       ",
"                                  # 2 P.U.~.(.(.(.(._.(.~._._._._.~.(.(.(.W.~.(.Q.Q.C.; .                                       ",
"                                  # 1 P.W.~.(.(.(.(.(.(._._.~.~.~._.(.(.(.W.~.(.Q.Q.( O O                                       ",
"                                  # 2 P.W.(.(.(.(.U.!.~.~._.~._.~.!.W.(.(.W.~.(.^.R.h . >                                       ",
"                                  # < P.W.(.(._.~.!.~.^.^.^.K.Q.Q.W.U.~.(.W.~.(.^.C.; O                                         ",
"                                  % 2 P.U.(.(._.~._.~./.K.I.J.U.U.~.(._.(.W.!.(.T.^ O >                                         ",
"                                  # 5 P.W.(.(._._.Q.^.U.E.Q.K.U.U.(.(.~.~.U.Q.(.I.E O                                           ",
"                                  @ : J.W.~.(.~._./.(./.^.!.Q.U.U.~.(._.(.W.U.E.F.a :                                           ",
"                                  . . V.W.~.(._.(.(./.(.(.(.~.!.W._._.~.~.W.U.[ W , #                                           ",
"                                  > O A._._._.!.(./.Y.(./.(.(.(.~.~._._.(.(.(.H.F.5 %                                           ",
"                                  ; > A./.!./.V.S.) ~ B.B.U.U.^././.!././././.H.S., %                                           ",
"                                  . + 2 1 2 2 2 5 5 2 2 , 5 2 5 5 2 5 2 2 5 1 2 2 % 2                                           ",
"                                  @ # % % % % % # 5 2 2 # # # # % # # 2 % % % % % % 2                                           ",
"                                  % # # % % % % % 2 2 % % % % # % # % % % % % % 2 % %                                           ",
"                                                                                                                                ",
"                                                                                                                                ",
"                                                                                                                                ",
"                                                                                                                                ",
"                                                                                                                                ",
"                                                                                                                                ",
"                                                                                                                                "
};
