/* XPM */
static char *_cec8e65ff714bf697339d97b72e0fc3yXa6YZyq5gZY0BP2[] = {
/* columns rows colors chars-per-pixel */
"64 64 145 2 ",
"   c None",
".  c #000000",
"X  c #0B0704",
"o  c #0E0804",
"O  c #150F00",
"+  c #160F09",
"@  c #1A1300",
"#  c #1E1109",
"$  c #2C1E06",
"%  c #25150B",
"&  c #28170B",
"*  c #2C1A0D",
"=  c #301C0F",
"-  c #2B2000",
";  c #302300",
":  c #3E2F03",
">  c #372012",
",  c #3B2213",
"<  c #473400",
"1  c #493500",
"2  c #4B3B01",
"3  c #472A17",
"4  c #462F1F",
"5  c #4C2C18",
"6  c #512E16",
"7  c #512F1A",
"8  c #4D311F",
"9  c #553118",
"0  c #5C351C",
"q  c #61371B",
"w  c #673B1D",
"e  c #693C1E",
"r  c #452E21",
"t  c #482F20",
"y  c #4D3220",
"u  c #563520",
"i  c #5A3720",
"p  c #663C20",
"a  c #6C3E22",
"s  c #703F20",
"d  c #5C4400",
"f  c #544A00",
"g  c #5D4A00",
"h  c #605202",
"j  c #675B00",
"k  c #735E07",
"l  c #716202",
"z  c #6E4122",
"x  c #754321",
"c  c #784421",
"v  c #7E4925",
"b  c #814F1F",
"n  c #84521E",
"m  c #88571D",
"M  c #825B19",
"N  c #8E5D1C",
"B  c #975F19",
"V  c #816B06",
"C  c #9F7F00",
"Z  c #846315",
"A  c #8B6415",
"S  c #8D6915",
"D  c #946514",
"F  c #9D6716",
"G  c #976D15",
"H  c #9E6913",
"J  c #9F7211",
"K  c #A26E15",
"L  c #A47214",
"P  c #AA7315",
"I  c #A77D13",
"U  c #A97D15",
"Y  c #B37A12",
"T  c #B87C12",
"R  c #804A26",
"E  c #844D29",
"W  c #894F2A",
"Q  c #8C522C",
"!  c #92552F",
"~  c #955730",
"^  c #A18000",
"/  c #AF8B00",
"(  c #B28E00",
")  c #BC9500",
"_  c #AD8214",
"`  c #B18615",
"'  c #B38A12",
"]  c #B98F14",
"[  c #B48818",
"{  c #BD9215",
"}  c #CD8E0C",
"|  c #C79C00",
" . c #D29F0A",
".. c #D5A10A",
"X. c #D1AB0B",
"o. c #DAB609",
"O. c #DDB908",
"+. c #E7A900",
"@. c #E8A900",
"#. c #E4B600",
"$. c #F6B500",
"%. c #F9B700",
"&. c #F9B700",
"*. c #FFB900",
"=. c #FEBA00",
"-. c #FFBA00",
";. c #FFBB00",
":. c #FFBC00",
">. c #FFBD00",
",. c #FEBB00",
"<. c #E8C105",
"1. c #E8C605",
"2. c #EFC804",
"3. c #EFCF04",
"4. c #FFC600",
"5. c #FFC700",
"6. c #FEC500",
"7. c #FEC800",
"8. c #FFC800",
"9. c #FFC900",
"0. c #FFCA00",
"q. c #FECB00",
"w. c #FFCB00",
"e. c #FFCC00",
"r. c #FECE00",
"t. c #FFCE00",
"y. c #FECF00",
"u. c #FFCF00",
"i. c #FFCB00",
"p. c #F1D003",
"a. c #F1D103",
"s. c #FFD100",
"d. c #FDD700",
"f. c #FED800",
"g. c #FFD900",
"h. c #FDDF00",
"j. c #FEDF00",
"k. c #FFDF00",
"l. c #FEE000",
"z. c #FFE000",
"x. c #FFE100",
"c. c #FFE200",
"v. c #FFE300",
"b. c #FFE400",
"n. c #FFE500",
/* pixels */
"                                                                                                                                ",
"                                                                                                                                ",
"                                                                                                                                ",
"                                                                                                                                ",
"                                                                                                                                ",
"                                                                                                                                ",
"                                                                                                                                ",
"                                                                                                                                ",
"                                                                                                                                ",
"                                                                                                                                ",
"                                                                                                                                ",
"                                                                                                                                ",
"                                                                                                                                ",
"                                                                                                                                ",
"                                                                                                                                ",
"                                                                                                                                ",
"                                                                                                                                ",
"                                                                                                                                ",
"                                                                                                                                ",
"                                                                                                                                ",
"                                                                                                                                ",
"                . . . . . . . . . . . . . . . . . . . . . . . . . . . . . . . . . . . . . . . . . . . . . . . .                 ",
"                . . . . . . . . . . . . . . . . . . . . . . . . . . . . . . . . . . . . . . . . . . . . . . . .                 ",
"                . . X X X X X X X X X X X X X X X X X X X X X X X X X X X X X X X X X X X X X X X X X X o X . . .               ",
"          . . . . . 3 x a c x x x x x x z x x x x x x v c x v x v z x x v z v z x x x x x x x x x z x c v 5 . . . . .           ",
"          . . . . . 0 ~ ~ ~ ~ ~ ~ ~ ~ ~ ~ ~ ~ ~ ~ ~ ! ! ! ! ! ! ~ ~ ~ ~ ! ! ! ~ ~ ~ ~ ~ ~ ~ ! ~ ~ ~ ~ ~ ~ i . . . . .           ",
"          . . X = = p E E E E W W W Q Q W W E E Q E E E W E E E Q Q E E Q Q Q E W E E E E Q E E W W W E W p = * X . .           ",
"      . . . . % W Q R x c c c c x x x z c c x c x v x x c c c c x x x x a x x x c c c c x x x v c x c c x v Q Q % . . . .       ",
"      . . . . % Q Q v c c c c c x v c c c c c c x x c c c c c c c c c c v s v s c c c c c c c c c c c c c v Q Q % . . . .       ",
"      . . > 7 0 v R v c c c c c c x c c c c c c x v c c c c c c c c c c s v c v c c c c c c c x x c c c c c R R 0 7 , X .       ",
"      . . p ~ Q c c c c c c c c c c c c c c c c x c c c x c c c c x c x c c s v c c c c c c c c c c c c c c c c Q ~ a . .       ",
"      . . w Q Q c c c c c c c c c c c c c c c c c c c c E W m m m m m W c c c c c c c c c c c c c c c c c c c c E Q a . . .     ",
". . . . . 6 v c c c c c c c c c c c c c c c c c c c c v X.3.3.3.3.3.p.o.n x c c c c c c c c c c c c c c c c c c c v 0 X . . . . ",
". . . . . 6 v c c c c c c c c c c c c c c c c c c c x c O.b.b.l.x.x.b.1.b x x c c c c c c c c c c c c s c c c c c c 9 . . . . . ",
". . X # % 0 c c c c c c c c c c c c c c c x c c c N _ _ <.g.d.d.d.d.f.2.' _ B x c c c c c c c c c c c c c c c c c c p % % X . . ",
". . % x x c c c c c c c c c c c x c c c c c c c x U l.l.s.r.q.q.w.w.w.r.x.x.` x c c c c c c c c c c c c c c c c c c c s x % . . ",
". . % x c x c x x c c x x x x c c c x c c x c c x U x.x.s.q.q.q.w.w.r.r.j.x.' x c c c c c x x x c c c c c c c x c c x c x & . . ",
". . X % % & & & % % % % & & & & % & % % % & & % % k j.x.s.q.q.q.w.w.w.r.j.x.l % & & % % & & & & % % & & % % % & & & & % % X . . ",
". . . . . . . . . . . . . . . . . X . . . . . . . f j.x.s.q.q.q.w.w.w.r.x.x.j X . . . . . . . . . . . . . . . . . . . . . . . . ",
". . . X X o o o X X X o o o o o X X X X X X X X X h x.j.s.q.q.q.w.w.w.r.j.x.k X X X X X X X X X X X X X X X X X o o o X X X . . ",
". . # z z z x z z z z z z z z z a z z z z z z z a U l.l.s.r.q.q.w.w.w.r.j.x.' a z z z z z z z z z z z z z z z z z x z z z * . . ",
". . % E E v v E E E v E E v E v E E R E E E E v v [ l.l.s.q.r.r.r.w.r.r.j.x.{ R E E E v E E v E E E v E v E E E v E E E v = . . ",
". . % c v v v v v v v v v v v v v v v v v v v v v _ x.j.s.q.#.^ C #.w.r.j.x.] v v v v v v v v v v v v v v v v v v v c v v = . . ",
". . % x c c c x c c c c v x c c x c c c c c c c c U x.x.s.r.) X X ( r.r.j.x.' x c c x x c c c c x v c c c c c c c c c c x = . . ",
". . % x c c c c c c c c c c c c c c c c c c c c s U j.j.s.y.) X . ( r.r.x.x.' x c c x c c c c c c c c c c c c c c v v c x & . . ",
". . + u i i i i i i u i 0 i i i i i i i i i i i u G 4.w.q.y.) X . ( r.w.w.w.I u i i i i i i i i u i i i i i i i u u u i u % . . ",
". . + r r r y r y r y r r r y r y r y r r y r r t A %.;.7.y.) X . / s.4.;.:.J 4 y y r y y y r r r y r y r r y r r r y r r # . . ",
". . + y u u y y y y y y u y y y u y y y y y y u t S ;.;.4.w.| ; - ) r.4.;.:.L 8 y y y y y y y u y y y y u y y y u y y y y # . . ",
". . % z x s x x x e x x e x x x z x z z z c z z x K ;.;.:.:.&.@.+.%.:.:.;.;.Y z x z x z x z x z x x x z x s x s x x a x a & . . ",
". . % x c c x c c c c c c c x x c c c c c c c c x P ;.;.:.6.:.:.:.:.:.:.;.6.T x c c c c c c c c c c c c c c c c c c c c c * . . ",
". . % x c c c c c c c c c c c c c c c c c c c c c B } } } } } } } } } } } } H c c c c c c c c c c c c c c c c c c c c x c * . . ",
". . % x c c c c c c c c c c c c c c c c c c c c c c c x c c c c c c c c c x c c c c c c c c c c c c c c c c c c c c c c c * . . ",
". . % x c c c v c c c x x c c c c x c x c c c x x c c c x c c c c c c c c c c x x c x c c c c c c c c c c c v c c c v v c * . . ",
". . :  .............Z u 0 u u 0 i u i u u u u 0 i u u 0 u u u u u u u u u i u i 0 u u u u 0 u u u u i u i k  ....... . ...2 . . ",
". . 2 q.r.r.r.w.s.r.S r r t r r t t r y r r 8 4 t r 4 r r r r r y y r y t t t y r y r r y r 4 4 r y r r r Z r.r.s.r.r.r.r.g . . ",
". . 2 q.r.w.w.w.w.w.G y y u y y u 8 y y y u 8 9 y u y u y u y u y 8 y y y u y y 8 y y u y y 9 8 8 y 8 u y N q.r.w.w.w.w.w.g . . ",
". . 1 6.w.w.w.w.w.w.P x x x x x x x x x x x x x x x x x x x x x x x x x x x x x x x x x x s x x x x x x s J 4.w.w.w.w.w.w.g . . ",
". . 2 7.w.w.w.w.w.w.P x x c c x c x x c c x c c x c c c x c c x c c c c c c c x c x x c c c c c c c c c x K q.w.r.w.w.w.w.g . . ",
". . 2 6.4.6.4.4.4.4.K s x x x s x x x x s x x x x s x x x s x x z z z x x x x x x x x x x x x x s x x s s K 6.4.4.4.4.4.6.g . . ",
". . < &.;.;.;.;.;.;.H p w e e e e w w e w e w w w w e w w w e e z w e e w w w w e w w e w w w w w w p p p F ;.:.:.;.:.:.;.d . . ",
". . < $.&.&.&.&.&.&.H q w w w w w w w w w w w w w w w w w w w w w w w w w w w w w w w e w w w w w w w w p D &.&.%.%.%.%.$.d . . ",
". . O < < < < < < < $ # # # # # # # # # # # % # % @ # # # # # # # # # # @ % # @ # # # # # # # # % # # # # - < < 1 < < < < @ . . ",
". . . . . . . . . . . . . . . . . . . . . . . . . . . . . . . . . . . . . . . . . . . . . . . . . . . . . . . . . . . . . . . . ",
". . . . . . . . . . . . . . . . . . . . . . . . . . . . . . . . . . . . . . . . . . . . . . . . . . . . . . . . . . . . . . . . "
};
