/* XPM */
static char *_49e592b538c4c0b8eca314a8bbd5feakA1PtEjsu6LuPGJp[] = {
/* columns rows colors chars-per-pixel */
"64 64 206 2 ",
"   c None",
".  c #000003",
"X  c #00000C",
"o  c #020214",
"O  c #0B0516",
"+  c #140B1A",
"@  c #161518",
"#  c #181824",
"$  c #1D1C28",
"%  c #190E23",
"&  c #3C0833",
"*  c #3D183E",
"=  c #291A31",
"-  c #27262F",
";  c #2D2A37",
":  c #470736",
">  c #540336",
",  c #56033A",
"<  c #550A3D",
"1  c #59083D",
"2  c #56173A",
"3  c #4C112F",
"4  c #77182F",
"5  c #7E0837",
"6  c #7F113E",
"7  c #640B3D",
"8  c #562637",
"9  c #633F3C",
"0  c #64413D",
"q  c #362F4E",
"w  c #5B0B42",
"e  c #5F1945",
"r  c #411D46",
"t  c #641746",
"y  c #610D4A",
"u  c #46234B",
"i  c #442747",
"p  c #453C4C",
"a  c #502F51",
"s  c #583456",
"d  c #6B2952",
"f  c #722F57",
"g  c #643E5A",
"h  c #713159",
"j  c #364261",
"k  c #44404A",
"l  c #444348",
"z  c #525058",
"x  c #674458",
"c  c #7A505C",
"v  c #455979",
"b  c #444F69",
"n  c #644963",
"m  c #624562",
"M  c #7C4C66",
"N  c #7B566C",
"B  c #6D536D",
"V  c #4A617F",
"C  c #6C6C74",
"Z  c #64697B",
"A  c #7B6378",
"S  c #626069",
"D  c #85162A",
"F  c #861839",
"G  c #911F30",
"H  c #A61839",
"J  c #B5183C",
"K  c #B00D35",
"L  c #8F342E",
"P  c #88273D",
"I  c #89323B",
"U  c #932D36",
"Y  c #ED3A1E",
"T  c #E83219",
"R  c #E8320E",
"E  c #C70F33",
"W  c #C41435",
"Q  c #CB1334",
"!  c #CB1C36",
"~  c #C6163A",
"^  c #C91539",
"/  c #C71939",
"(  c #C91939",
")  c #C71835",
"_  c #CF1C36",
"`  c #CF212D",
"'  c #CE2332",
"]  c #CE213B",
"[  c #D42536",
"{  c #CB363D",
"}  c #DA352B",
"|  c #EC3A22",
" . c #E4372D",
".. c #E63B33",
"X. c #ED4326",
"o. c #ED452D",
"O. c #E6472E",
"+. c #F1452C",
"@. c #F74A2D",
"#. c #EB4232",
"$. c #E84736",
"%. c #F94A31",
"&. c #F54C33",
"*. c #EA553A",
"=. c #F05434",
"-. c #F1613D",
";. c #851440",
":. c #882A45",
">. c #853953",
",. c #C22948",
"<. c #895E69",
"1. c #8D6668",
"2. c #9D6E6B",
"3. c #96726B",
"4. c #98726C",
"5. c #9A6E75",
"6. c #A2746D",
"7. c #A87C76",
"8. c #D6464A",
"9. c #DA4F4F",
"0. c #DE6452",
"q. c #D96A55",
"w. c #EB6649",
"e. c #F26342",
"r. c #F27B4D",
"t. c #EA7958",
"y. c #E36F55",
"u. c #D46C60",
"i. c #E47363",
"p. c #AD8177",
"a. c #F48655",
"s. c #F88A5B",
"d. c #FC9B65",
"f. c #FF9F6C",
"g. c #E8887A",
"h. c #EE8A67",
"j. c #FDA065",
"k. c #FFA369",
"l. c #FFAA73",
"z. c #FFB76F",
"x. c #4C6383",
"c. c #536989",
"v. c #5B6986",
"b. c #5F728F",
"n. c #587192",
"m. c #657995",
"M. c #6C7E99",
"N. c #626383",
"B. c #957B89",
"V. c #A26489",
"C. c #AF7894",
"Z. c #C47285",
"A. c #6E819D",
"S. c #7B85AA",
"D. c #7B8FB8",
"F. c #7C91B8",
"G. c #918493",
"H. c #A6898E",
"J. c #828EA5",
"K. c #828CB4",
"L. c #878FBB",
"P. c #8997B7",
"I. c #929CB1",
"U. c #A194B3",
"Y. c #96A4BD",
"T. c #BCAAB9",
"R. c #CC8F8F",
"E. c #D4999A",
"W. c #CF9391",
"Q. c #EA9586",
"!. c #EA9989",
"~. c #DCBA92",
"^. c #D3AA8E",
"/. c #E2BC94",
"(. c #C6B5BB",
"). c #E5ADA2",
"_. c #EDC896",
"`. c #EBC597",
"'. c #F1CD99",
"]. c #E8C1B9",
"[. c #959EC1",
"{. c #9AA7C2",
"}. c #9EB5CD",
"|. c #A2AEC6",
" X c #A5B4CB",
".X c #AAB5CE",
"XX c #ABB9CD",
"oX c #B3BBC5",
"OX c #B1BDCE",
"+X c #ACBBD3",
"@X c #A9BBD3",
"#X c #B3BED1",
"$X c #B5C1D3",
"%X c #B9C5D8",
"&X c #B2C3D1",
"*X c #B6D0E4",
"=X c #C4C9D4",
"-X c #C8D0DC",
";X c #EECDC2",
":X c #FCEAD4",
">X c #CFD6E1",
",X c #D2D9E3",
"<X c #DDE0E8",
"1X c #FDFDFD",
"2X c #F6F6F6",
"3X c #EFECEF",
/* pixels */
"                                                                                                                                ",
"                                                                                                                                ",
"                                                                                                                                ",
"                                                                                                                                ",
"                                                                                                                                ",
"                                                                                                                                ",
"                                                                                                                                ",
"                                                                                                                                ",
"                                                                                                                                ",
"                                                                                                                                ",
"                                                                                                                                ",
"                                                                                                                                ",
"                                                                                                                                ",
"                                                                                                                                ",
"                                                      B m n n n n n n n n                                                       ",
"                                                      s r u u u u u u u a                                                       ",
"                                                      3.3.3.3.3.3.3.1.c M                                                       ",
"                                                B.* x `._.`._._.`.'.^.6.7.x * A                                                 ",
"                                                B.u x ~./.~./././.`.^.2.5.x i A                                                 ",
"                                                C O = x x 1.p.7.7.7.5.s g ; O z                                                 ",
"                                                S . O a a c 2.2.2.6.1.a s # . q                                                 ",
"                                                  l p i q N H.H.B.B.A i i k l C                                                 ",
"                                                      # . Z %X+XK.L.N.O O                                                       ",
"                                                      $ . Z %X XK.L.v.X +                                                       ",
"                                                      v q I.3X<X|.|.J.j b                                                       ",
"                                                      M.c.$X1X1X#X#X{.n.m.                                                      ",
"                                                      m.x.oX1X2X#X#XY.c.m.                                                      ",
"                                                      m.x.oX1X1X#X#XY.c.b.                                                      ",
"                                                      b.v oX1X1X%X#XY.x.v.                                                      ",
"                                                      oXoX=X,X>X{.[.Y.P.P.                                                      ",
"                                                  x.M.2X1X,X|. XK.M.P.%X$XA.v J.                                                ",
"                                                  v.J.3X1X>XXXXXL.K.P.+XXXS.c.I.                                                ",
"                                            d 2 T.2X3X&X#XOX.X.XL.K.K.L.D.{.+XU.w e                                             ",
"                                            1 : T.1X2X$X+X+X.X XL.D.D.D.D.|.*XU.w >                                             ",
"                                            G D E.:X;XE.R.(.-X=XV.V.V.V.V.R.E.Z.;.F C.                                          ",
"                                      h w D &.X.r.j.a.X.T ).1X2X,.E ^ E E  .@...~ ~ F 1 h                                       ",
"                                      f , F X.X.r.k.s.O. ./.1X3X,.Q ^ ) W  .&...) ) F , h                                       ",
"                                      h , I a.a.w.=.y.].].E.i.i.( ~ / / ) ] ] [ ....:., h                                       ",
"                                      h , :.j.k.-.T q.2X1XQ.R | ( / ~ / / ~ W ` +.@.U w h                                       ",
"                                      h , I d.d.e.Y 0.2X1XQ.Y o.( / ~ / / / ) ' *.-.:.& d                                       ",
"                                      h , I d.j.e.| 0.2X1XQ.| #.( / ~ / / / W { d.k.9 o ;                                       ",
"                                      h , :.k.k.e.| 0.1X1X!.| #.( / ~ / / W K { f.l.0 X ;                                       ",
"                                      h < 6 8.8.#.| *.g.g.w.X.#.( ~ ( ~ Q 9.y.0.8.8.8 X ;                                       ",
"                                      d > 5 Q W } &.+.| | +.o.o.( ~ ~ ~ J a.z.h.Q Q 3 . ;                                       ",
"                                      <.d :.J J } ..#.o.o.o.o.o.' ! ! ! ` q.h.u.H H 8 - k                                       ",
"                                            t t H ^ _ +.o.o.o.o.o.o.o.+.$.P t 2 + +                                             ",
"                                            t , H _ [ %.%.%.&.%.%.%.%.%.&.:.y : O O                                             ",
"                                            N M >.4 4 L L L L L L L L L L 2 & i p p                                             ",
"                                                C . o o o o o o o o o o o O X z                                                 ",
"                                                C @ # # # # # # # # # # # # @ z                                                 ",
"                                                                                                                                ",
"                                                                                                                                ",
"                                                                                                                                ",
"                                                                                                                                ",
"                                                                                                                                ",
"                                                                                                                                ",
"                                                                                                                                ",
"                                                                                                                                ",
"                                                                                                                                ",
"                                                                                                                                ",
"                                                                                                                                ",
"                                                                                                                                ",
"                                                                                                                                ",
"                                                                                                                                "
};
