/* XPM */
static char *_28dcd8a9c954d51f630619671a72576wJnzLAEU60cvA7rH[] = {
/* columns rows colors chars-per-pixel */
"64 64 248 2 ",
"   c None",
".  c #000000",
"X  c #0B0301",
"o  c #020A02",
"O  c #0B0C0B",
"+  c #170803",
"@  c #071707",
"#  c #161E17",
"$  c #151709",
"%  c #290804",
"&  c #3B0C05",
"*  c #330904",
"=  c #3B1A06",
"-  c #2D1114",
";  c #2D1718",
":  c #3D1819",
">  c #2B0F12",
",  c #052900",
"<  c #003C01",
"1  c #003102",
"2  c #172517",
"3  c #1A3D1A",
"4  c #37290C",
"5  c #353814",
"6  c #2C2E0C",
"7  c #17362A",
"8  c #232423",
"9  c #2A392B",
"0  c #363936",
"q  c #241E24",
"w  c #4F1E01",
"e  c #431A07",
"r  c #511E03",
"t  c #491915",
"y  c #531A1B",
"u  c #67140C",
"i  c #472202",
"p  c #522106",
"a  c #512A02",
"s  c #572A06",
"d  c #5B3508",
"f  c #4A2717",
"g  c #532614",
"h  c #562914",
"j  c #552619",
"k  c #58371A",
"l  c #653D07",
"z  c #692719",
"x  c #762818",
"c  c #682E12",
"v  c #4B1B2A",
"b  c #4B2523",
"n  c #522923",
"m  c #5A2926",
"M  c #5C2933",
"N  c #592633",
"B  c #5B3332",
"V  c #4E3825",
"C  c #642F2E",
"Z  c #602F26",
"A  c #7B2C25",
"S  c #61352F",
"D  c #673729",
"F  c #71382E",
"G  c #632E38",
"H  c #752D35",
"J  c #633235",
"K  c #66333A",
"L  c #6A3637",
"P  c #743A3A",
"I  c #753538",
"U  c #044402",
"Y  c #07500E",
"T  c #2B5214",
"R  c #006300",
"E  c #166E10",
"W  c #175722",
"Q  c #1A4735",
"!  c #334334",
"~  c #374C37",
"^  c #384A39",
"/  c #395239",
"(  c #3D5C3D",
")  c #33513A",
"_  c #29503A",
"`  c #166C28",
"'  c #306631",
"]  c #59451A",
"[  c #56571A",
"{  c #444F16",
"}  c #6C4307",
"|  c #664417",
" . c #7C541A",
".. c #744917",
"X. c #7A6F0D",
"o. c #48543A",
"O. c #545130",
"+. c #78482A",
"@. c #7E552C",
"#. c #7A5827",
"$. c #754431",
"%. c #694D2F",
"&. c #71772F",
"*. c #5F6303",
"=. c #6C3340",
"-. c #7A3C40",
";. c #305B42",
":. c #455845",
">. c #515148",
",. c #466746",
"<. c #467246",
"1. c #4A7B4A",
"2. c #487748",
"3. c #686E45",
"4. c #717271",
"5. c #5F6560",
"6. c #901705",
"7. c #A41400",
"8. c #A81905",
"9. c #B91000",
"0. c #AB240C",
"q. c #863427",
"w. c #85343A",
"e. c #9C3330",
"r. c #B03632",
"t. c #8E3D18",
"y. c #DB2309",
"u. c #8E5112",
"i. c #865928",
"p. c #8D5B32",
"a. c #845233",
"s. c #915A36",
"d. c #8F5130",
"f. c #B74332",
"g. c #A55638",
"h. c #B4482C",
"j. c #8A6227",
"k. c #956D29",
"l. c #99672B",
"z. c #99732A",
"x. c #956332",
"c. c #9D6B33",
"v. c #9C6633",
"b. c #8F6B33",
"n. c #AC7D2D",
"m. c #A57629",
"M. c #A66D37",
"N. c #A57332",
"B. c #AB7932",
"V. c #A87637",
"C. c #B47B38",
"Z. c #B36433",
"A. c #9C7C1D",
"S. c #DB5336",
"D. c #CC4E34",
"F. c #E35634",
"G. c #F05E36",
"H. c #FB6639",
"J. c #FF7739",
"K. c #803F40",
"L. c #B47246",
"P. c #A24F41",
"I. c #FF6941",
"U. c #138E0F",
"Y. c #308C32",
"T. c #33A63C",
"R. c #599439",
"E. c #39CA39",
"W. c #35C936",
"Q. c #31D137",
"!. c #4D824D",
"~. c #4D884D",
"^. c #559553",
"/. c #509252",
"(. c #68934D",
"). c #51AE4E",
"_. c #66B667",
"`. c #748074",
"'. c #30EC4C",
"]. c #4CCC4B",
"[. c #44CE47",
"{. c #47D348",
"}. c #58C75E",
"|. c #58D455",
" X c #4DC357",
".X c #62C359",
"XX c #55F354",
"oX c #66D866",
"OX c #7ADC7A",
"+X c #68C469",
"@X c #67E967",
"#X c #64FF65",
"$X c #57C860",
"%X c #959309",
"&X c #BBA80F",
"*X c #93922D",
"=X c #A3922A",
"-X c #BA8535",
";X c #B78E2E",
":X c #B4A224",
">X c #CFBA16",
",X c #C69B26",
"<X c #C78636",
"1X c #C79532",
"2X c #C99436",
"3X c #CE9C33",
"4X c #C79830",
"5X c #D59E37",
"6X c #C18B28",
"7X c #DCAB31",
"8X c #D9A437",
"9X c #E5A73D",
"0X c #E3B231",
"qX c #EFB33D",
"wX c #F3B531",
"eX c #FF833C",
"rX c #E9CB05",
"tX c #FFFF1C",
"yX c #FBF30F",
"uX c #F2C63A",
"iX c #FFFD3A",
"pX c #FFF532",
"aX c #C9CB1F",
"sX c #A2A562",
"dX c #FF8142",
"fX c #E29441",
"gX c #FFFF6F",
"hX c #FFED44",
"jX c #807C80",
"kX c #7AE581",
"lX c #8D918E",
"zX c #A09EA0",
"xX c #AFAEAF",
"cX c #A29FA3",
"vX c #87DE87",
"bX c #87E788",
"nX c #B2E9B2",
"mX c #FFFF99",
"MX c #FFFF8F",
"NX c #FFFFA7",
"BX c #FFFFBB",
"VX c #E1C4B9",
"CX c #D5D2D5",
"ZX c #C4EDC4",
"AX c #D3EFD2",
"SX c white",
"DX c #F0E4E9",
"FX c #FFFFC8",
/* pixels */
"                                                                                                                                ",
"                                                                                                                                ",
"                                                                                                                                ",
"                                                                                                                                ",
"                                                                                                                                ",
"                                                                                                                                ",
"                                                                                                                                ",
"                                                                                                                                ",
"                                                                                                                                ",
"                                                            / / / / /                                                           ",
"                                                          ~ ~ ~ ~ ~ ~ ~                                                         ",
"                                                    ~ ~ ~ ,.2.<.<.<.2.,.! ~ ~                                                   ",
"                                                    ( ( ( 2.!.!.!.!.~.<./ ( :.                                                  ",
"                                                / / 1.!.1.!.!.!.!.1.!.!.!.!.1./ /                                               ",
"                                                ~ / 2.!.!.<.( ( ( ( ( <.!.!.1./ /                                               ",
"                                                / / 1.1.!.( ! ~ ~ ~ ! ( !.!.2.~ ~                                               ",
"                                              / / / ( ( / / / / ~ 9 ! 0 ! / ( / / /                                             ",
"                                              / / ) ~ ~ ~ / / ! ,.~.!.1.!.( ! / / /                                             ",
"                                              ,.( ) / / / / / 0 ~.oX.X+XoX2.9 / / :.                                            ",
"                                          . . $ 8 ;._ ) / 0 / ^.).{.].].]. X/.) ) :.. .                                         ",
"                                          + + . 2 3.O.o.) ( !.}.|.{.{.{.XX.X(.O.o./ 4 $                                         ",
"                                        . m F . f Z.g.%.Q ^.oX{.{.[.].{.'.3.e.g.>._ C.p..                                       ",
"                                        . n J . #.qXrX&XD ^.$X].[.[.{. X(.;X7XrXX.# l.a..                                       ",
"                                        . n C . z.iXyXyXd.(. X].{.{.{.).e.wXpXtX%X. l.i..                                       ",
"                                        . n C . %XyXSXDXt.(.}.E.OXnXQ.T.r.rXtXSXcX. x.@.. . . . . .                             ",
"                                        . n C . X.rXVXcX] ^.}.E.vXZXbX.X(.&X>XVX4.. x.a.. O 2 2 # # o                           ",
"                                        . n C . b L.u.} Q /.}.E.OXZXAXbX'.&.e.Z.4 . l.@.. ! <.,.,.:.O .                         ",
"                                        . n -.m 5 T O.O.! ^..XE.OXZXZXvXW.|.).T ] i.L.@.. ' _.^.^._.2 .                         ",
"                                      % + : C w.5 < Q ) ~ /..XE.kXZXnXOXE.[.T.1 [ fXl.k X Y.@X X|.oX2 .                         ",
"                                    % t I + . H 5 U 1 Y >.^.oXW.vXAXXX{.#X` . @ [ 9X% . . T.#XXXXX#X2 .                         ",
"                                  & t S M.+ . F B 0 %.O.W W Y.{.@XvXY.E ` #.A.%X3XqX$ . . 3 ' W W ' @ .                         ",
"                                & & M a.C.4 X S K H Z.b.1 , < [.[.W.U @ , 6XhXqXwX0X; X . . . . . . . .                         ",
"                                * % v F p.-X-X& * e x.V.c.M.a.< < 1 k.8XuXuX0Xl } u.1Xj.. . > eXh.. . .                         ",
"                                e j F p.n.3X;Xy t t F +.+.s.M.{ { [ 6X5X6X;Xm.u.a 4 5Xz.. . + h.c . . .                         ",
"                              * y P j.C.3X4X-XL K L & * % ..V.M.C.9X8Xl.i i d L.f . 2Xk.. . . . . . . o                         ",
"                              & y I d.C.1X3XB.+ : I m j v c } l ..u.l i.n.n.m.V.f . 2Xk.. A F.H.S.h.0.6.                        ",
"                              % f V #.k.-X5XB.. > I K L $...} } l l l k.8X8X2XC.f . 2Xk.. x S.F.D.h.0.6.                        ",
"                              . 1 U.R T Z.2X-X. > I N $.z.x.x.x.p.p.-X8X0X0X8X8X| . 1Xk.. . . . . . . o                         ",
"                            O q T ' T.Y.{ ;X-X. ; P N $.c.x.x.x.N.-X3X7X0X0X7X9X| . 2Xk.. *.*XsX*X%X$ .                         ",
"                          . O 0 0 :.+X).R =X<X. > P M $.c.x.x.i.n.4X0X0X7X0X7X8X] . 2Xk.. aXgXFXmXiX4 .                         ",
"                          . O 0 ^ ( _.T.R =X<X. - P N $.c.x.x.p.N.1X7X7X7X0X7X9Xd . 9X;X. sXBXMXNXNX4 .                         ",
"                          . . 8 0 ( _.T.R =X<X. - P N $.c.l.x.p.N.4X7X0X7X0X7X5X .4 i.] . sXmXNXmXgX4 .                         ",
"                          . . . 8 ,.+X).R =XC.X - P N +.N.x.l.p.B.4X7X0X0X0X7X1X-XM.. . . >XiXBXgXtX4 .                         ",
"                        . >.4.o 1 E Y.E @ z.2X. ; P G L D p.M.x.c.n.3X7X5X8X3XN.M.M.j.k . 6 6 6 6 6 o .                         ",
"                      O q 4.zX. , E E , . k.2X. > F Z m N +.p.p.a.a.V.V.N.m.z.i.@.i.C.a.. . X X o . + %                         ",
"                    . 9 cXlX5.. & w.I v . k.2X. % s i f K J G G G J M M K j e * * % l.@.. q.H.J.H.D.0.7.                        ",
"                  . :.4.4.DXCX. % K.-.b . z.5X. > F i...g g g g g f r t t = d ,X,X6X-X%.. q.G.F.S.D.0.9.                        ",
"                . o lXcX4.SXSX. % P L t . l.2X. > I M.j.i i a a a s s d d e l hXpXpX<XZ . q.F.f.f.D.8.7.                        ",
"                . o :.cXSX4.2   . X . . . . . . . . m s.C.l.l.p.n.8X-X0XiXL.v . o o . . . u y.8.0.8.8.7.                        ",
"                . O zXCXxX8 .     X % % ; > & t z x : n %.a.s.a.v.B.V.B.:X| > : y u z z x x 6.7.9.8.7.                          ",
"                . @ SXDX.           s z P e.r.r.I.eXX . . : =.C M N =.; . . X S.H.J.J.J.dXt.$                                   ",
"                . . 0 0           s j S B w.r.e.r.r.S ; . = c h h g c : . ; C S.S.F.S.F.G.q.b i                                 ",
"                . . . .         w p J K B q.q.q.q.A K.m X = d a a a s = + b K.f.f.r.f.f.f.w.B p p                               ",
"                                p p S K K L S S S B L Z r p           p r Z K K J J B B J K S p p                               ",
"                                  p h j h h h j j h j h p               p h j g g g j g g j j p                                 ",
"                                    r w w w w p p i r r                   r i w w w w w w w r                                   ",
"                                                                                                                                ",
"                                                                                                                                ",
"                                                                                                                                ",
"                                                                                                                                ",
"                                                                                                                                ",
"                                                                                                                                ",
"                                                                                                                                ",
"                                                                                                                                "
};
