/* XPM */
static char *_d3deb6682b1492fb57c0253246a138fEXgqALa20pPgBiQu[] = {
/* columns rows colors chars-per-pixel */
"64 64 218 2 ",
"   c None",
".  c #010000",
"X  c #0B0101",
"o  c #0A0A0A",
"O  c #070A0A",
"+  c #160504",
"@  c #1A0604",
"#  c #141313",
"$  c #1B1B1B",
"%  c #16171A",
"&  c #0E1312",
"*  c #280302",
"=  c #340301",
"-  c #350905",
";  c #350E0B",
":  c #3B0A06",
">  c #37110E",
",  c #391816",
"<  c #281717",
"1  c #2A2019",
"2  c #1C2425",
"3  c #232424",
"4  c #2C2C2C",
"5  c #212B2D",
"6  c #372D2B",
"7  c #373428",
"8  c #2B3739",
"9  c #323232",
"0  c #3D3D3D",
"q  c #343C36",
"w  c #460A05",
"e  c #48120E",
"r  c #481815",
"t  c #5B1C17",
"y  c #5B0D08",
"u  c #7A150E",
"i  c #77190F",
"p  c #6A1E18",
"a  c #7A1B14",
"s  c #761A12",
"d  c #650F08",
"f  c #7A221D",
"g  c #67211A",
"h  c #472D29",
"j  c #453B34",
"k  c #543F3E",
"l  c #762B24",
"z  c #3F403D",
"x  c #49473A",
"c  c #554837",
"v  c #6A4138",
"b  c #354748",
"n  c #444444",
"m  c #4D4D4D",
"M  c #454748",
"N  c #4C5354",
"B  c #545454",
"V  c #5B5B5B",
"C  c #554240",
"Z  c #695247",
"A  c #77665A",
"S  c #7B7158",
"D  c #646464",
"F  c #6C6B6B",
"G  c #747474",
"H  c #757C7E",
"J  c #7B7A7B",
"K  c #736E69",
"L  c #871D16",
"P  c #911B13",
"I  c #B11C15",
"U  c #8A221A",
"Y  c #94251C",
"T  c #B6291F",
"R  c #AB281F",
"E  c #852A21",
"W  c #88322B",
"Q  c #9D3229",
"!  c #902C22",
"~  c #A92C22",
"^  c #AD352A",
"/  c #B53126",
"(  c #BB3429",
")  c #BB382C",
"_  c #BA3D32",
"`  c #B92B20",
"'  c #CD1A0D",
"]  c #FF0E00",
"[  c #FF1000",
"{  c #FF1A13",
"}  c #D02719",
"|  c #FF2517",
" . c #FF2519",
".. c #CB392D",
"X. c #C53428",
"o. c #D2342A",
"O. c #E93729",
"+. c #FF3325",
"@. c #FF3529",
"#. c #FF3D2D",
"$. c #F5342A",
"%. c #FF3E32",
"&. c #F03629",
"*. c #8E433C",
"=. c #924135",
"-. c #C64738",
";. c #DE4C3F",
":. c #EA4133",
">. c #EA483A",
",. c #E64739",
"<. c #FF4334",
"1. c #FC4C3C",
"2. c #F8473B",
"3. c #F0503F",
"4. c #91514A",
"5. c #A35650",
"6. c #8F6E5B",
"7. c #827665",
"8. c #967961",
"9. c #817F7F",
"0. c #866863",
"q. c #D05447",
"w. c #FF4C41",
"e. c #FE5244",
"r. c #FF594A",
"t. c #FF5E55",
"y. c #E04941",
"u. c #DB655C",
"i. c #FC604E",
"p. c #FF6356",
"a. c #FF6A5C",
"s. c #FB6558",
"d. c #E16E5B",
"f. c #D27770",
"g. c #FF7767",
"h. c #FF7C75",
"j. c #87836F",
"k. c #A88B70",
"l. c #FF847A",
"z. c #FF8574",
"x. c #7D8484",
"c. c #838383",
"v. c #8B8B8B",
"b. c #8C9495",
"n. c #939393",
"m. c #9C9C9C",
"M. c #969898",
"N. c #918788",
"B. c #A2968A",
"V. c #B9A284",
"C. c #B7A09E",
"Z. c #9DA8A8",
"A. c #A4A4A5",
"S. c #A4A9AB",
"D. c #AAA9AA",
"F. c #AAB4B5",
"G. c #B6B6B6",
"H. c #B5BABA",
"J. c #BCBCBC",
"K. c #FD8C83",
"L. c #FF8C88",
"P. c #FF958B",
"I. c #FF988F",
"U. c #FF9B94",
"Y. c #FF9690",
"T. c #EA948D",
"R. c #C9B18E",
"E. c #CBBD9B",
"W. c #D7BD8F",
"Q. c #F0A081",
"!. c #FDA69D",
"~. c #FFBE9E",
"^. c #EBBF9A",
"/. c #DABCB9",
"(. c #FEAAA5",
"). c #FFAEAA",
"_. c #FDBCB8",
"`. c #E3B9B5",
"'. c #D1C49E",
"]. c #D7D0AE",
"[. c #FBCAA4",
"{. c #FAD7AD",
"}. c #EADAB2",
"|. c #FFDDB1",
" X c #F0DEB2",
".X c #F7CBB3",
"XX c #FCE8BA",
"oX c #BBC2C3",
"OX c #BAC8C9",
"+X c #BCCDD0",
"@X c #C4C4C4",
"#X c #CBCBCB",
"$X c #C3CACA",
"%X c #DDC8C6",
"&X c #CED2D2",
"*X c #D4D4D4",
"=X c #D4DBDC",
"-X c #DCDBDB",
";X c #D8D8D3",
":X c #FFC6C2",
">X c #FECCC9",
",X c #FFDDDA",
"<X c #FBD7D4",
"1X c #FFEFC1",
"2X c #FFFBC9",
"3X c #FFE1DF",
"4X c #DFE0E0",
"5X c #DEF8FB",
"6X c #E3E4E4",
"7X c #ECECEC",
"8X c #FFE9E7",
"9X c #FEECEB",
"0X c #FBE4E4",
"qX c #FFF0EF",
"wX c #F3F3F3",
"eX c #FFF5F4",
"rX c #FEFEFE",
"tX c #FAFAF7",
/* pixels */
"                                                                                                                                ",
"                                                                                                                                ",
"                                                                                                                                ",
"                                                                                                                                ",
"                                                                                                                                ",
"                                                                                                                                ",
"                                                                                                                                ",
"                                                                                                                                ",
"                                                                                                                                ",
"                                                                                                                                ",
"                                                                                                                                ",
"                                                                      . . . . . . . . . .                                       ",
"                                                                    . . q B V V B V m # .                                       ",
"                                                          . . . . . . O M.*X*X*X*X;X*X9 . .                                     ",
"                                                          . O B J F F G -XrXrXrXrXrXrXm.n % .                                   ",
"                                                    . o 3 3 m @XrXwXtXtXrXrXrXrXrXrXrXrXG.9 .                                   ",
"                                              . . . O n D.D.@X7XrXrXrXrXrXrXrXrXrXrXrXrXJ.9 .                                   ",
"                                            . . % % 4 9.rXrXrXrXrXrXrXrXrXrXrX7X-X7XrXrXG.9 .                                   ",
"                                          . . O n.-X*X7XrXrXrXrXrXrXrXrXrXrXrXm.# v.rXrXG.9 .                                   ",
"                                        . . 4 J 7XrXrXrXrXrXrXrXrXrXrXrXrXrXrXJ.m D v.wX$X9 .                                   ",
"                                      . . o G 6XrXtXtXtXtXtXwXwXtXrXrXrXrXrXrXwX&XG $ #X@X9 .                                   ",
"                                    . . 4 n.m.n.x.H H H H H H H S.rXrXrXrXrXrXrXrXJ.D J D % .                                   ",
"                                  . O # G tXJ . X X X . . X X X n =XwXrXrXrXrXrXrXrXrX9 . . .                                   ",
"                                  . 9 v.m.B 2 + l X.R R ^ ^ ^ / l N Z.tXrXrXrXrXrXrXwX0 .                                       ",
"                                  . m #XH.O @ t Q q.i.r.2.1.3.e.( r F J.7XrXrXrXrXrX7X0 .                                       ",
"                                  . B -XF.. i -.e x '.~.<.1.1.+.&...g 5 oXrXrXrXrXrX7X0 .                                       ",
"                                  . 3 J m.G 4.! f v G 6.Y U Q u.g.%.I t A D.6XrXrXrXtXn .                                       ",
"                                  . . # F 6Xx., ) -.r O + X h '.[.%.$.,.e b oXrXrXtX7X0 .                                       ",
"                                    . . 4 m.b.J *.=.Z q . 7 j.].{.z.a.1.= 3 H.rXtX@Xc.$ .                                       ",
"                                      . . . c.&X8 q ].V.. k.1X|.{.XXQ.o.e m $XrX7XG . . .                                       ",
"                                        . . $ 9 . x '.k.. 8.{.{.|.}.8.r N.*XwXrXwXv.#                                           ",
"                                          . . . . x E.V.7 k.{.XXXX XS O S.rXrX7XG.D O                                           ",
"                                          . . . . 7 '. XR.^.[.{.XXXXS . A.rXrXS.# O .                                           ",
"                                        . . 9 G H k.}.XX2X2X[.k.S 7.j.m.6XrXrX#XG 9 . .                                         ",
"                                  . . + < 4 b.rXrXtX}.'.'.}.k.6 . . G 7X6X6XtXrX6Xc.4 O .                                       ",
"                                  . * s 5.Z.=XtXrX;X7.c c V j # . O 4 V B c.7X*XV 9.m.4 . .                                     ",
"                                  . w X.P.tXqX9XqXA.h X % % % $ 3 3 $ # o z G.A.% n.rXF O O .                                   ",
"                                  . - ( t.a.r.y.Z h Q f.+X+XOXoXJ.J.J.J.@Xn.n m @X7XrX6Xc.3 .                                   ",
"                                  . ; _ <. .r.u.1 * ) l._.(._.8XtXrXrXtXrX*XJ V A.&XwXrXG.9 .                                   ",
"                                  . ; _ %.{ Y.%X8 = ..r.e.@.p.<XrXrXrXrXrXtX6Xn.5 x.wXrX/.9 .                                   ",
"                                  . : ( a.U.8X5Xb ; ..@.[ w.L.0XrXrXrXrXrXrXrXm.. V 7XrXG.9 .                                   ",
"                                  . = T l.rXeX%Xq - ..e.2.>XrXrXrXrXrXrXrXrXrXm.$ c.wXrXG.9 .                                   ",
"                                  . ; ( p.l.l.u., = ..l.:XeXrXrXrXrXrXrXrXrXrX-XD.*XtXrXG.9 .                                   ",
"                                  . ; ) 1.+.<.;., * ~ K.eX8X,X,X8XrXrXrXrXrXrXrXtXrXrXrXG.9 .                                   ",
"                                  . > _ #.] l.%XM O * l t.t.r. .a.9XrXrXrXrXrXrXrXrXrXrXG.9 .                                   ",
"                                  . - ) p.l.,X5XN . . y <.$.%.e.U.eXrXrXrXrXrXrXrXrXrXrXG.9 .                                   ",
"                                  . = ` l.8XeX-Xn . # g ,.+.t._.eXrXeX9XtXrXrXrXrXrXrXrXG.9 .                                   ",
"                                  . : X.g.(.I.f., 2 G 0.d ' g.9XrXrX>XL.<XrXrXrXrXrXrXrXG.9 .                                   ",
"                                  . > ^ >. .+.} = N =XoX& L u.>X9X,XK.{ ).rXrXeX8XeXrXrXH.9 .                                   ",
"                                  . X > U #.P.`.6 8 OXrXH.C t q.l.s.w.@._.rXrX:Xt.).eXrXH.9 .                                   ",
"                                  . . . y <.T.@Xj k &XrX<XF h Y &.+.+.#.:XrXeXL. .P.tXrXC.4 .                                   ",
"                                      . p r.=.7 P f.7X>X2./.F.9 y <.1.<.,X8Xh. .@.(.rXP./ ; .                                   ",
"                                      X > W f U O.p.!.h. .P.!.4.p E Y Y T.P.1.| w.l.!.i.T : .                                   ",
"                                      . . + f y.e.O.O.O.>.:.:.w.Q @ X + ~ :.>.>.>.:.O.3.^ ; .                                   ",
"                                        . . > E f a s s f s u Y t . . . w a f f f a i U t + . .                                 ",
"                                          . . . . . . . . . . . . . . . . . . . . . . . . . . .                                 ",
"                                                                                                                                ",
"                                                                                                                                ",
"                                                                                                                                ",
"                                                                                                                                ",
"                                                                                                                                ",
"                                                                                                                                ",
"                                                                                                                                ",
"                                                                                                                                "
};
