/* XPM */
static char *cc71dfd81883447e90b294c22b3ce9d0xABgwxftbAddbP6m[] = {
/* columns rows colors chars-per-pixel */
"64 64 173 2 ",
"   c None",
".  c #020202",
"X  c #03030E",
"o  c #09070E",
"O  c #0D0D0E",
"+  c #0F100F",
"@  c #14130E",
"#  c #1A160C",
"$  c #1C1A0F",
"%  c #020311",
"&  c #090710",
"*  c #070810",
"=  c #0D0D10",
"-  c #020F1D",
";  c #110E10",
":  c #101010",
">  c #181610",
",  c #1F1C11",
"<  c #10151A",
"1  c #211E11",
"2  c #24210E",
"3  c #2C250D",
"4  c #352C0C",
"5  c #3D2E0B",
"6  c #3F320F",
"7  c #262211",
"8  c #2D2412",
"9  c #2D2A11",
"0  c #332B10",
"q  c #392C11",
"w  c #363111",
"e  c #3B3513",
"r  c #0C1622",
"t  c #041D37",
"y  c #0E2238",
"u  c #443D0C",
"i  c #4A3A0C",
"p  c #423B12",
"a  c #4B450A",
"s  c #574D0F",
"d  c #5D490F",
"f  c #4B4213",
"g  c #584511",
"h  c #524A12",
"j  c #575013",
"k  c #5C5114",
"l  c #624A0A",
"z  c #6A5D08",
"x  c #6B540A",
"c  c #665A14",
"v  c #6A5E13",
"b  c #7E6E06",
"n  c #7C6004",
"m  c #726614",
"M  c #756916",
"N  c #7C6D14",
"B  c #7C6E18",
"V  c #7F7015",
"C  c #06284D",
"Z  c #062344",
"A  c #003173",
"S  c #013478",
"D  c #0A427F",
"F  c #8C7503",
"G  c #877708",
"H  c #867606",
"J  c #947404",
"K  c #9C7C02",
"L  c #9B7709",
"P  c #987504",
"I  c #887712",
"U  c #877816",
"Y  c #897A15",
"T  c #957413",
"R  c #A57C0D",
"E  c #A27C11",
"W  c #A47B29",
"Q  c #988405",
"!  c #948315",
"~  c #968618",
"^  c #A48205",
"/  c #A88704",
"(  c #A78901",
")  c #A88508",
"_  c #AE8A0C",
"`  c #A98A09",
"'  c #B38E06",
"]  c #B28D0D",
"[  c #AD9302",
"{  c #B29305",
"}  c #B59B02",
"|  c #B99E05",
" . c #B59509",
".. c #BD970C",
"X. c #BD9A09",
"o. c #AC8311",
"O. c #A08D16",
"+. c #B08713",
"@. c #A49215",
"#. c #A89211",
"$. c #A39319",
"%. c #BE9012",
"&. c #B39F16",
"*. c #B29E19",
"=. c #BBA301",
"-. c #BFA900",
";. c #BEA00B",
":. c #B3A018",
">. c #BEA818",
",. c #B9A417",
"<. c #C1960F",
"1. c #CC9C0C",
"2. c #C1A702",
"3. c #C9A705",
"4. c #C3AB03",
"5. c #CBAE05",
"6. c #CBAF0F",
"7. c #C4A90C",
"8. c #C6B000",
"9. c #CBB40C",
"0. c #CBB400",
"q. c #D1B502",
"w. c #D4BB0D",
"e. c #D2B10B",
"r. c #C7A617",
"t. c #C4AC16",
"y. c #C5AE18",
"u. c #C6B015",
"i. c #CCB518",
"p. c #D5B414",
"a. c #D5BB13",
"s. c #D2BA19",
"d. c #D9BF1B",
"f. c #E0BF17",
"g. c #DDC40D",
"h. c #DDD500",
"j. c #DEC414",
"k. c #DCC31A",
"l. c #E5CA0E",
"z. c #E6C903",
"x. c #F0D207",
"c. c #E4CB12",
"v. c #E4CA1A",
"b. c #E5C819",
"n. c #E8D119",
"m. c #ECD116",
"M. c #FBDE1A",
"N. c #FFE117",
"B. c #FEE21A",
"V. c #CDA45A",
"C. c #D6B57B",
"Z. c #033980",
"A. c #043F89",
"S. c #0F4887",
"D. c #05428E",
"F. c #064695",
"G. c #07499A",
"H. c #0852A5",
"J. c #0A55AC",
"K. c #0B59AF",
"L. c #0B5AB3",
"P. c #085ABD",
"I. c #105FB4",
"U. c #0D61BE",
"Y. c #1063BE",
"T. c #0A5EC1",
"R. c #0E64C4",
"E. c #0F67C8",
"W. c #0F68CA",
"Q. c #1066C3",
"!. c #1067C8",
"~. c #106BCE",
"^. c #3184D6",
/* pixels */
"                                                                                                                                ",
"                                                                                                                                ",
"                                                                                                                                ",
"                                                                                                                                ",
"                                                                                                                                ",
"                                                                                                                                ",
"                                                                                                                                ",
"                                                                                                                                ",
"                                                            o X                                                                 ",
"                                                          O O O &                                                               ",
"                                                          @ m ~ h                                                               ",
"                                                          = @.k.m *                                                             ",
"                                                      = X 1 I #.v = X                                                           ",
"                                                      : e @.s.s.s.Y 9 =                                                         ",
"                                                      1 :.B.p.r.b.B.I =                                                         ",
"                                                      , @.l.{ ^ | c.M ;                                                         ",
"                                                      k u.w.' ) | a.*.w                                                         ",
"                                                    % N c.6.] {  .a.j.f %                                                       ",
"                                                = % , U 9.=._ | { 4.9.c : *                                                     ",
"                                                > j *.j.9.| ) } ] | w.k.~ p                                                     ",
"                                                > $.B.l.7. .R [  .| 4.c.M.M X                                                   ",
"                                            O X : ! w.4.} / K } -.-.-.4.w.c X X                                                 ",
"                                            : p ! y.9.;.^ J K } -.-. .-.9.,.B 0 =                                               ",
"                                            7 >.B.c.7.+.R ( [ =.=.=.{ -.6.n.M.! =                                               ",
"                                          X , ,.l.2.=.] o._ [ } [ =.=.=.=.4.c.Y % X                                             ",
"                                      * X $ m t.4.=.-.| +.{ _ ] { { | -.-.| 5.,.h * % *                                         ",
"                                  & % X h :.v.a.2.-.=.=.2.8...] | 4.2.=.-.2.4.k.k.~ q X X                                       ",
"                              = % % e O.v.n.j.q.4.} <.0.8.| ..<...=.0.3.X.=.4.w.j.n.s.I 1 % %                                   ",
"                              = 1 N n.M.f.e.q.2.} ' %.) H L R E R J F _ %.' } 4.q.p.v.M.i.s @                                   ",
"                              2 [ x.y.N o.1.b u n J g 8 i l 6 4 i l 5 0 x P x a K 3.T Y j.z.b                                   ",
"                            * , H H 7 = g d = & 4 3 & X # @ X X & $ @ X ; 4 3 X $ d q & u Q z = &                               ",
"                            = @ 2 @ % *   = % @ > : : O . . . . . . O = ; : # r X + X * % > 2 : =                               ",
"                                          : : : ; : ) o.O o X . . . O o._ : : ~.D . . .                                         ",
"                                          ; : : : ; o.o.+ O @ = ; : : o.o.; : ~.K.- . .                                         ",
"                                      : : A A ; : : h.h.@ O ; : : ; : h.h.: ; ~.E.t . .                                         ",
"                                      : : A A : : : h.h.@ + : : : : : h.h.: : ~.E.Z .                                           ",
"                                      : ; P.P.: ; : : : : : ; : : : : : : ; : ~.Q.C .                                           ",
"                                      : = T.P.: : : : = : : : : : : ; : : : : P.P.: + O                                         ",
"                                      : ; ~.~.^.^.< : : ; : : : : ; : : ; P.T.~.~.: : : :                                       ",
"                                      : ; ~.~.^.^.: : : : : : : : : ; : = T.T.~.~.: : : :                                       ",
"                                  : : : : A A ~.~.^.^.^.^.^.^.~.~.~.~.~.~.U.L.A A : : : :                                       ",
"                                  : : : : S A ~.~.^.^.^.^.^.^.~.~.~.~.~.~.W.L.A A : : : :                                       ",
"                              : : C.C.C.C.: @ A A ~.~.~.~.~.~.P.W.~.~.~.W.W.D.+ : C.C.C.C.: :                                   ",
"                              : : C.C.C.C.: @ A A ~.~.~.~.~.~.W.~.~.~.~.R.G.S @ : C.C.C.C.: :                                   ",
"                              : : V.V.W W : : P.P.~.~.~.~.~.~.I.E.~.~.~.L.U.~.; : W W V.V.: :                                   ",
"                              : : V.V.W W : : P.T.~.~.~.~.~.~.~.Y.!.~.P.D.H.E.; : W W V.V.: :                                   ",
"                              : : P.P.H.H.: : P.T.W.~.~.~.~.~.~.~.~.~.L.S J.~.@ : H.H.P.P.: :                                   ",
"                              : : P.P.H.H.: = P.T.~.~.~.~.~.~.~.~.~.~.L.G.Q.~.; : H.H.P.P.: :                                   ",
"                              : : ~.~.J.H.+ : P.P.~.~.~.~.W.W.~.~.~.~.~.E.~.~.: + H.J.~.~.: :                                   ",
"                              : : ~.~.H.H.+ = P.P.~.~.~.~.W.~.~.~.~.!.~.~.~.~.= : H.H.W.~.: :                                   ",
"                                  : : P.P.@ = P.T.~.~.P.T.W.~.W.~.!.H.P.~.~.~.: : P.P.: :                                       ",
"                                  : : P.P.+ : P.P.~.~.P.T.R.W.R.~.U.D.H.!.~.~.: : P.P.: :                                       ",
"                                  : : A S : : P.P.W.~.~.~.T.T.R.~.U.F.F.U.~.~.: : A A : :                                       ",
"                                  : : A A : : P.T.~.~.~.~.P.P.L.Q.!.H.A.L.W.~.: : A A : :                                       ",
"                                      : + @ : P.P.~.~.~.~.P.P.H.U.~.U.A.D.K.W.: : : : : :                                       ",
"                                      : : : : P.P.~.~.~.~.P.P.H.L.Y.~.J.D.H.E.: : : : : :                                       ",
"                                      : : J.H.~.~.~.~.~.~.~.~.P.P.A.J.S.y A A H.H.@ : P.P.+ :                                   ",
"                                      : + H.H.W.~.~.~.W.~.W.~.P.P.A A < @ A A H.H.: : P.P.: :                                   ",
"                                      < @ + + : : : : : @ : : : : : : : : : @ + : : : : :                                       ",
"                                      @ + + @ : : : : : : : : : : : : : : : : : : : : : :                                       ",
"                                                                                                                                ",
"                                                                                                                                ",
"                                                                                                                                ",
"                                                                                                                                "
};
