/* XPM */
static char *be5b5817cb0b42cef93a7acb445ed16dyQhNcgWAOJDb7CMn[] = {
/* columns rows colors chars-per-pixel */
"64 64 11 1 ",
"  c None",
". c #2E0906",
"X c #1E2733",
"o c #24523B",
"O c #1A7A3E",
"+ c #2D404C",
"@ c #3B5961",
"# c #4C736C",
"$ c #1FA04D",
"% c #46BC49",
"& c #9BDB5E",
/* pixels */
"   +++X    +X   XXXXX+X    +X      X+    X+XXXXX   X+    X+++   ",
"X++%%&&X+XX&&X++%%O$X&&X+XX&&X++++X&&XX+X&&X$O%%++X&&XX+X&&%%++X",
"+&&%%&&o&&O&%&&%O%O%%&&o&&O&%&&%%&&%&O&&o&&%%O%O%&&%&O&&o&&%%&&+",
"+&&OOo%%&&$O%&&%$$$%%o%%&&$O%&&%%&&%O$&&%%o%%$$$%&&%O$&&%%oOO&&+",
" +%%O$%%$$$O$$$O$$$$$$%%$$$O$$$OO$$$O$$$%%$$$$$$O$$$O$$$%%$O%%O+",
"X$$O$$$$$$$$$$$$$$$$$$$$$$$$$$$$$$$$$$$$$$$$$$$$$$$$$$$$$$$$$OX ",
"X%%$$$$$$$$$$$$$$$$$$$$$$$$$$$$$$$$$$$$$$$$$$$$$$$$$$$$$$$$$&&X ",
"X%%$$$$$$&&&$$$$$$$$$$$$$$$$$$$$$$$$$$$$$$$$$$$$$$$$$$$$$$$$&&+ ",
" X$%%$$$@%%%@$$$$$$$$$$$$$$$$$$$$$$$$$$$$$$$$$$$$$$$$$$$$$$%%&&X",
" X$%%$&&OO%OO&&$$$$O@$$$$$$$$$$$$$$$$$$$$$$$$$$$$$$$$$$$$$$%%&&X",
"+&&O$$&&%%O%%&&$$$$#&&$$$$$$$$$$$$$$$$$$$$$$$$$$$$$$$$$$$$$O%%X ",
"+&&$$$@@%%#%%#@$$$$#&&$$$$$$$$$$$$$$$$$$$$$$$$$$$$$$$$$$$$$$%%X ",
"+O%%$$$$@#$#@$$$$$$O@@%%$$$$$$$$$$$$$$$$$$$$$$$$$$$$$$$$$$$$%%X ",
" +%%$$$$$$$$$$$$$$$$$#%%@$$$$$$$$$$$$$$$$$$$$$$$$$$$$$$$$$$$$&&X",
" +OOO$$$$$$$$$$$$$$$$O##O$$$$$$$$$$$$$$$$$$$$$$$$$$$$$$$$$$$O&&X",
"+&&OO$$$$$$$$$$$$$$$$$$$$$$$$$$$$$$$$$$$$$$$$$$$$$$$$$$$$$$$%%X ",
"X+%%O$$$$$$$$$$$$$$$$$$$$$$$$$$$$$$$$$$$$$$$$$$$$$$$$$$$$$$O&&%X",
"X+&&$$$$$$$$$$$$$$$$$$$$$$$$$$$$$$$$$$$$$$$$$$$$$$$$$$$$$$$$&&%X",
"XX&&$$$$$$$$$$$$$$$$$$$$$$$$$$$$$$$$$$$$$$$$$$$$$$$$$$$$$$$$%OOX",
"X&%%$$$$$$$$$$$$$$$$$$$$$$$$$$$$$$$$$$$$$$$$$$$$$$$O##O$$$$$%&&X",
"+&&OO$$$$$$$$$$$$$$$$$$$$$$$$$$$$$$$$##$###$$$$$$$$@%%#$$$$OO&&+",
" XO$$$$$$$$$$$$$$$$$$$$$$$$$$$$$$$$$#&&##%%#$$$$$$$$%%@@O$$$$OX ",
" X&&$$$$$$$$$$$$$$$$$$$$$$$$$$$$$$$$#&&%@%%@$$$$$$$$$$&&#$$$&&X ",
" +&&$$$$$$$$$$$$$$$$$$$$$$$$$$$$$$$$##@%%%$$$$$$$$$$$$&&#$$$&&+ ",
" Xo%%$$$$$$$$$$$$$$$$$$$$$$$$$$$$$$@%%%%$$$$$$$$$$$$$$$@O$$%%oX ",
"X&&%%$$$$$$$$$$$$$$$$$$$$$$$$$$$$$$@%%%%$$$$$$$$$$$$$$$$$$$%%&&X",
"+&&o$$$$$$$$$$$$$$$$$$$$$$$$$$$$$$$$@#@$$$$$$$$$$$$$$$$$$$$$o&&+",
" X%%$$$$$$$$$$$$$$$$$$$$$$$$$$$$$$$$$$$$$$$$$$$$$$$$$$$$$$$$%%X ",
"X$%%$$$$$$$$$$$$$$$$$$$$$$$$$$$$$$$$$$$$$$$$$$$$$$$$$$$$$$$$%%$X",
"XOO$$$$$$$$$$$$$$$$$$$$$$$$$$$$$$$$$$$$$$$$$$$$$$$$$$$$$$$$$$OOX",
" X%$$$$$$$$$$$$$$$$$$$$$$$$$$$$$$$$$$$$$$$$$$$$$$$$$$$$$$$$$$%%X",
"X%O$$$$$$$$$$$$$$$$$$$$$$$$$$$$$$$$$$$$$$$$$$$$$$$$$$$$$$$$$$O%X",
"X%O$$$$$$$$$$$$$$$$$$$$$$$$$$$$$$$$$$$$$$$$$$$$$$$$$$$$$$$$$$O%X",
"X%%$$$$$$$$$$$$$$$$$$$$$$$$$$$$$$$$$$$$$$$$$$$$$$$$$$$$$$$$$$%%X",
"XOO$$$$$$$$$$$$$$$$$$$$$$$$$$$$$$$$$$$$$$$$$$$$$$$$$$$$$$$$$$OOX",
"X$%%$$$$$$$$$$$$$$$$$$$$$$$$$$$$$$$$$$$$$$$$$$$$$$$$$$$$$$$$%%$X",
"+X%%$$$$$$$$$$$$$$$$$$$$$$$$$$$$$$$$$$$$$$$$$$$$$$$$$$$$$$$$%%XX",
"+&&o$$$$$$$$$$$$$$$$$$$$$$$$$$$$$$$OOOOOOOOOO$$$$$$$$$$$$$$$o&&+",
"X&&%%$$$$$$$$$$$$$OOOOOOOOOOO$$$$OOOOOOOOOOOOOO$$$$$$$$$$$$%%&&X",
" Xo%%$$$$$$$$$$$$OOOOOOOOOOOOO$$OOOOOOOOOOOOOOOO$$$$$$$$$$$%%oX ",
" +&&$$$$$$$$$$$$$OOOOOOOOOOOOO$$OOOOOOOOOOOOOOOO$$$$$$$$$$$$&&+ ",
" X&&$$$$$$$$$$$$$OOOOOOOOOOOOO$$OOOOOOOOOOOOOOOO$$$$$$$$$$$$&&X ",
" XO$$$###$$$@##$$OOOOOOOOOOOOO$$OOOOOOOOOOOOOOOO$$$$$$$$$$$$$OX ",
"+&&OO$@&&#$@&&#$$OOOOOOOOOOOOO$$OOOOOOOOOOOOOOOO$$$$$$$$$$$OO&&+",
"X&%%$$#&&%@%&&#$$OOOOOOOOOOOOO$$OOOOOOOOOOOOOOOO$$$$$$$$$$$$%%&X",
" X&&$$$@%%#%%#$$$$OOOOOOOOOOO$$$OOOOOOOOOOOOOOOO$$$$$$$$$$$$&&X ",
" +&&$$$$#%%%#$$$$$$$$$$$$$$$$$$$$OOOOOOOOOOOOOO$$$$$$$$$$$$$&&+ ",
" +%%O$$$$$$$$$$$$$$$$$$$$$$$$$$$$$$OOOOOOOOOO$$$$$$$$$$$$$$O%%+ ",
"+&&$$$$$$$$$$$$$$$$$$$$$$$$$$$$$$$$$$$$$$$$$$$$$$$$$$$$$$$$$%&&X",
"X$$$$$$$$$$$$$$$$$$$$$$$$$$$$$$$$$$$$$$$$$$$$$$$$$$$$$$$$$$$O&&X",
"X+%%$$$$$$$$$$$$$$$$$$$$$$$$$$$$$$$$$$$$$$$$$$$$$$$$$$$$$$$$$OOX",
"X+%%$$$$$$$$$$$$$$$$$$$$$$$$$$$$$$$$$$O##O$$$$$$$$$$$$$$$$$$%%OX",
"X$O$$$$$$$$$$$$$$$$$$$$$$$$$$$$$$$$$$$@&&@$$$$$$$$$$$@O$$$$$%%OX",
"X$%%O$$$$$$$$$$$$$$$$$$$$$$$$$$$$$$$O#@&&$$$$$$$$$$$%%#$$$$OO&&X",
"X&&%%$$$$$$$$$$$$$$$$$$$$$$$$$$$$$$$#%%$$$$$$$$$$$$$%%#$$$$%%&&X",
" Xo%%$$$$$$$$$$$$$$$$$$$$$$$$$$$$$$$#%%$$$$$$$$$$$&&@#O$$$$%%oX ",
" +&&$$$$$$$$$$$$$$$$$$$$$$$$$$$$$$$$O@$$$$$$$$$$$#&&@$$$$$$$&&+ ",
" X&&$$$$$$$$$$$$$$$$$$$$$$$$$$$$$$$$$$$$$$$$$$$$$$##$$$$$$$$&&X ",
" XO$$$$$$$$$$$$$$$$$$$$$$$$$$$$$$$$$$$$$$$$$$$$$$$$$$$$$$$$$$OX ",
"+O%%O$%%$$$O$$$O$$$$$$%%$$$O$$$OO%$$$$%%$$$O$$$OO$$$O$$$%%$O%%O+",
"+&&OOo%%&&$O%&&%$$$%%o%%&&$O%&&%%%$%%o%$&&$O%&&%%&&%O$&&%%oOO&&+",
"+&&%%&&o&&O&%&&%O%O%%&&o&&O&%&&%%%O%%&&$&&O&%&&%%&&%&O&&o&&%%&&+",
"X++%%&&X+XX&&X++%%O$X&&X+XX&&X++XOO$X&&++XX&&X++++X&&XX+X&&%%++X",
"   +++X    +X   XXXXX+X    +X    X+X +X    +X      X+    X+++  ."
};
