/* XPM */
static char *_d56125c04794989dd49543e64d21a168KDwiZCGYJr8DRwm[] = {
/* columns rows colors chars-per-pixel */
"64 64 28 1 ",
"  c None",
". c #101010",
"X c #111010",
"o c #101110",
"O c #111110",
"+ c #101011",
"@ c #6B5208",
"# c #003173",
"$ c #937300",
"% c #947300",
"& c #A47B29",
"* c #AC8410",
"= c #AD8410",
"- c #BCA400",
"; c #BDA500",
": c #D5BC18",
"> c #D6BD18",
", c #DDD500",
"< c #CDA45A",
"1 c #CDA55A",
"2 c #D6B57B",
"3 c #0852A4",
"4 c #0852A5",
"5 c #085ABC",
"6 c #085ABD",
"7 c #106BCD",
"8 c #106BCE",
"9 c #3184D6",
/* pixels */
"                                                                ",
"                                                                ",
"                                                                ",
"                                                                ",
"                                                                ",
"                                                                ",
"                                                                ",
"                                                                ",
"                                         OOO.                   ",
"                                         OOO.                   ",
"                                     O++.:>:-.+                 ",
"                                     O++.::-:O+                 ",
"                                   OO>>>:%=@@O+                 ",
"                                   OO>>>>==@@OO                 ",
"                               .ooo>>--==%%OO                   ",
"                               .ooO>>:-%=%%OX                   ",
"                           OOO.:>>:;;==%%@@oo                   ",
"                           OOO.:>::;;==%%@@oo                   ",
"                 ooOOOOOOOo>>>>-;;;==%%@@o.                     ",
"                 oooOOOOOOo>>>>:;;;==%%@@.o                     ",
"               o.--:>>>>>>>;;;;==%%%%@@@@..                     ",
"               o.--:>>>>::>;;;;==%%%%@@@@.o                     ",
"                 o...==--;;;;;;==%%@@@@.o                       ",
"                 o...==--;;;;;;==%%@@@@..                       ",
"                     o...$$==;;;;==%%@@o.                       ",
"                     o...$$*=;;;;==$%@@oo                       ",
"                       ......@@===*==%%@@.o                     ",
"                       ......@@===*==%%@@..                     ",
"                     o...==........@@$$%%@@.o                   ",
"                     ....==........@@$$%%@@..                   ",
"                   oo##..,,....==.....o@@@@@@..                 ",
"                   o.##..,,....==......@@@@@@.o                 ",
"                   ..66++......,,..+++++.....oo                 ",
"                   ..66++......,,..+++++.o...oo                 ",
"                   o.8899+++++++...446644##oo                   ",
"                   ..8899+++++....+446644##oo                   ",
"                 ooOo##8899999988888844##..                     ",
"                 oOOo##8899999988888844##..                     ",
"               .o2222.o##8887773444####44##.o                   ",
"               ..2222.o##8887773444####44##.o                   ",
"               o.<<&&o.66888888XXXX78886644..                   ",
"               .o<<&&o.66888888XXXo78886644.o                   ",
"               .o6644..668888++2222##888866..                   ",
"               o.6644..668888++2222##888866.o                   ",
"               oo8844..668888++<1&&##888866..                   ",
"               oo8844..668888++<1&&##888866.o                   ",
"                 o.66..66886666+o..##888866..                   ",
"                 ..66..66886666+oo.##888866..                   ",
"                 oo##o.6688885644.o##888866.o                   ",
"                 oo##..6688885644..##887866..                   ",
"                   ....6688885534.o##877866+.                   ",
"                   ....6688885534.o##877866+o                   ",
"                   .X338888777756##.o##788866oo                 ",
"                   oo338888877756##.X##788856oo                 ",
"                   oooooooooX..oooooooooooXXo                   ",
"                   ooooooooooo.oooooooooooXXo                   ",
"                                                                ",
"                                                                ",
"                                                                ",
"                                                                ",
"                                                                ",
"                                                                ",
"                                                                ",
"                                                                "
};
