/* XPM */
static char *_6551e5fdcb249f0cc3128dec7861331JH7e8XysX6Dw0VVG[] = {
/* columns rows colors chars-per-pixel */
"64 64 97 2 ",
"   c None",
".  c gray6",
"X  c #100F0F",
"o  c #0F100F",
"O  c #11110F",
"+  c #18170F",
"@  c #18180F",
"#  c #0F0F10",
"$  c #100F10",
"%  c #0F1113",
"&  c #0F141C",
"*  c #121313",
"=  c #181612",
"-  c #1A1910",
";  c #11151B",
":  c #171819",
">  c #18191B",
",  c #201E10",
"<  c #121820",
"1  c #654D08",
"2  c #684F08",
"3  c #6C5208",
"4  c #705608",
"5  c #725808",
"6  c #012E6D",
"7  c #06336F",
"8  c #002F70",
"9  c #003274",
"0  c #083672",
"q  c #083876",
"w  c #003479",
"e  c #8C6E01",
"r  c #937301",
"t  c #987700",
"y  c #9B7A04",
"u  c #A37C10",
"i  c #A87F10",
"p  c #97742A",
"a  c #98752C",
"s  c #A17A2C",
"d  c #AC830F",
"f  c #B0870F",
"g  c #B2890F",
"h  c #B29C01",
"j  c #A78010",
"k  c #AD8410",
"l  c #B08711",
"z  c #BDA401",
"x  c #AA802D",
"c  c #C6AF18",
"v  c #CDB517",
"b  c #C7B018",
"n  c #CEB618",
"m  c #CFB818",
"M  c #D0B717",
"N  c #D5BC17",
"B  c #D8BE17",
"V  c #D2B918",
"C  c #D4CB00",
"Z  c #BF9A55",
"A  c #BF9C5B",
"S  c #C69E56",
"D  c #C5A15D",
"F  c #CCA35A",
"G  c #C7A974",
"H  c #CEAE75",
"J  c #C7AA78",
"K  c #CEAF79",
"L  c #CFB077",
"P  c #CFB078",
"I  c #D1B077",
"U  c #D4B379",
"Y  c #D8B67A",
"T  c #084E9D",
"R  c #0E519A",
"E  c #074FA0",
"W  c #084FA0",
"Q  c #0851A3",
"!  c #0753A8",
"~  c #0853A8",
"^  c #0857B5",
"/  c #0958B6",
"(  c #0757B8",
")  c #075ABE",
"_  c #085BBD",
"`  c #085CC0",
"'  c #0F66C5",
"]  c #0F69CB",
"[  c #1066C4",
"{  c #1068C7",
"}  c #106BCD",
"|  c #116DD0",
" . c #2F7ECC",
".. c #3080CF",
"X. c #2F82D4",
"o. c #2F84D8",
"O. c #3084D7",
/* pixels */
"                                                                                                                                ",
"                                                                                                                                ",
"                                                                                                                                ",
"                                                                                                                                ",
"                                                                                                                                ",
"                                                                                                                                ",
"                                                                                                                                ",
"                                                                                                                                ",
"                                      * O $ O                                                                                   ",
"                                      O @ = =                                                                                   ",
"                                  $ = h v V c = # # O                                                                           ",
"                                  $ = b z N v - = * =                                                                           ",
"                                  * O 3 4 d y v V V b * .                                                                       ",
"                                  * O 1 3 i d V N B M , =                                                                       ",
"                                      * + r t d d z c v b + X X *                                                               ",
"                                      $ O e r d t z M N M , = + O                                                               ",
"                                      % O 3 4 r r l l c c b M M b O . O *                                                       ",
"                                      % O 1 2 r r i l h c M N B M , * = O                                                       ",
"                                          O O 3 4 r r i i c c z c v V m b + X X * O O O * X *                                   ",
"                                          o * 2 4 r r f i h h z M N N B M , + + = + = - @ O O                                   ",
"                                          o O 3 3 3 3 r r t r k f z z c c v v v m m m V v z h O *                               ",
"                                          % * 1 2 3 3 r r r r k d z z z z N N N N N V m v z h O %                               ",
"                                              O + 2 4 3 4 r r l d z z z h c z c z g k - * + +                                   ",
"                                              # * 2 2 2 4 r r d d z z z c h z h h d u * . . *                                   ",
"                                              . O 2 4 r r j d z z z z d d t r @ O = O                                           ",
"                                              * * 3 3 r t k l z z z z d u r e O # # O                                           ",
"                                          % O 1 3 e r d d k k f d 4 3 = O + O O .                                               ",
"                                          O * 2 4 r r d k j i d u 3 1 O * O * $ *                                               ",
"                                      * O 1 3 r r r r 4 3 = * O O * * # + u u + # * .                                           ",
"                                      O O 3 3 r r e e 3 1 O O O + X X # O d d * # % %                                           ",
"                                  o O 1 3 3 3 4 3 O O O O . O u u + $ # + C C + # 6 6 % O                                       ",
"                                  % * 1 2 2 1 2 1 O * O % . = d d * $ $ + C C + % 9 9 % O                                       ",
"                                  o O O * O O O * # $ # $ # + C C + # $ $ + + X % ( ^ * #                                       ",
"                                  * o % X * * & % * ; ; * # + C C @ . X $ # # * < / / & $                                       ",
"                                      O * 6 9 T Q ^ ^ W T % $ + + $ X X X X ;  .X.| { ; O                                       ",
"                                      O % 6 9 W Q _ _ ~ Q & $ ; * ; ; ; ; ; <  .o.{ ' % .                                       ",
"                                          * & 8 w Q ! } } ] [ ] { ...... . . .| ] w 9 % O * *                                   ",
"                                          $ % 8 w W Q ] ] | | ] } O.O.O.O.O.O.} ' 9 6 : = = *                                   ",
"                                      O * 6 9 Q Q 9 9 9 w W ~ ~ ~ } } } } | } w 9 % : G I P G = .                               ",
"                                      o % 9 9 Q Q w w 9 w W W W R } } } } } ] w 8 * * H Y Y H = .                               ",
"                                      O % T ! ) ) ] ] ] ' ; $ $ & { | } | ] ] ) ^ ; * s x F F : o                               ",
"                                      X ; R Q ) ` } } ] [ > = = > [ { } } | } ` ( $ + a s F S : .                               ",
"                                      . * ( ` ] ] | ] w q J K K G > & { | ] ] ` ( $ $ R Q _ / % X                               ",
"                                      O & ( ` ] | | ] 8 0 K Y Y L = & { | | ] ` ( ; $ W ~ _ / & *                               ",
"                                      . % ^ _ } } } } w 7 s x F D + # ] | } ] ` ( * * W ~ | [ * .                               ",
"                                      O ; ^ _ } } } ] w 7 a s S Z : ; ] } | ] ` ^ ; $ W ~ ] [ ; .                               ",
"                                      $ ; ^ ` } | } ] 9 6 : * + : ^ ^ _ ` } } ` ^ ; $ ( ^ < %                                   ",
"                                      # * ( _ } ] | ] w 6 # % % & ^ _ _ _ } } _ ( $ ; ^ ^ * $                                   ",
"                                      . % ( ` } } | ] w 6 % % T R _ ) } } } } ) ( % % 9 9 % O                                   ",
"                                      * ; ^ ` } } } ] 9 6 % * E ! _ ) } } } } ` ^ * % 6 6 % o                                   ",
"                                      $ * ( ` } } } ] w 6 % * W ! _ ) } } } } ` ^ * . % %                                       ",
"                                      % & / ` } } ] ] 8 6 & & E ! _ ) } } | } ` ( & * o *                                       ",
"                                  O % ~ / } | | ] w 9 % % 6 9 / _ ] ] } ] | | ] | Q T * o                                       ",
"                                  * ; ^ ( { ] { ' 9 6 % * 6 9 ^ / { { { { ] ] { [ Q T & O                                       ",
"                                      * ; * ; % * % % O % % % % ; % * ; % * & % & * % O o                                       ",
"                                      . X * o O # * % o O . * o O o O o O o O O o o O o *                                       ",
"                                                                                                                                ",
"                                                                                                                                ",
"                                                                                                                                ",
"                                                                                                                                ",
"                                                                                                                                ",
"                                                                                                                                ",
"                                                                                                                                ",
"                                                                                                                                "
};
