/* XPM */
static char *_b3f6f2d03ed4744c9a41c04f82ef9f72Lmq5M509jbHz26A[] = {
/* columns rows colors chars-per-pixel */
"64 64 13 1 ",
"  c #663300",
". c #777777",
"X c #FF6600",
"o c #CC6633",
"O c #FF9900",
"+ c #FF9933",
"@ c #FFCC33",
"# c #FFAE4C",
"$ c #FFC054",
"% c #FFCC66",
"& c #FFFF66",
"* c #FFCC99",
"= c #FFFF99",
/* pixels */
" o#%@%%#$$+%%%#%*@%%%%#$#%%%#%%%%%#%%$*%%#%%%@$$%%%#$$$#*%$%&=+.",
" o#%@%%#$$+%%%#%*@%%%#$$#%%%#%%%%%#%%$*%%%#%%@$$*%%#$$$#*%$%&=+.",
" o#%@%%#$$+%%%#%*@%%%#$$#%%%#%%%%%#%%$$%%%#%%@$$*%%#$$$#*%$%&=+.",
" o#%@%%#$$+%%%#%*@%%%#$$#%%%#%%%%#%%%%$$%%#%%@$$*%%#$$$#*%$%&=+.",
" o#%@%%#$$+%%#%%*@%%%#$$#%%%#%%%#%%#%%$$%%#%%@$$*%%#$$$#*%$%&=+.",
" o#%@%%#$$+%%#%%*@%%%#$$#%%%#%%%#%%##%$$%%#%%@$$*%%#$$$#*%$%&=+.",
" o#%@%%#$$+%%#%%*@%%%#$$#%%%#%%%#%%##%$$%%#%%@$$*%%#$$$#*%$%&=+.",
" o#%@%%#$$+%%#%%*@%%%%#$#%%%#%%#%%#%#%$$%%#%%@$$*%%#$$$#*%$%&=+.",
" o#%@%%#$$+%%#%%*@%%%%#$#%%%#%%#%%#%#%*$%%#%%@$$*%%#$$$#*%$%&=+.",
" o#%@%%#$$+%%#%%*@%%%%#$#%%%#%#%%%#@#%%$%%#%%@$$*%%#$$$#*%$%&=+.",
" o#%@%%#$$+%%#%%*@%%%%#$#%%%#%#%%%#@%#%$*%#%%@$$*%%#$$$#*%$%&=+.",
" o#%@%%#$$+%%#%%*@%%%%#$#%%%#%#%%+%@%#%$$%#%%@$$*%%#$$$#*%$%&=+.",
" o#%@%%#$$+%%#%%*@%%%%#$#%%%#%#%%+%@%#%$$%#%%@$$*%%#$$$#*%$%&=+.",
" o#%@%%#$$+%%#%%*@%%%%#$#%%%#%#%%+%@%#%%$%#%%@$$*%%#$$$#*%$%&=+.",
" o#%@%%#$$+%%#%%*@%%%%#$#%%%#%#%%+%%%%+%$%#%%@$$*%%#$$$#*%$%&=+.",
" o#%@%%#$$+%%#%%*@%%%%#$#%%%#%#%%+%+@%+%$%#%%@$$*%%#$$$#*%$%&=+.",
" o#%@%%#$$+%%#%%*@%%%%#$#%%%#%#%+@%++%+%$%#%%@$$*%%#$$$#*%$%&=+.",
" o#%@%%#$$+%%#%%*@%%%%#$#%%%#%#%+%++X+%+%*#%%@$$*%%#$$$#*%$%&=+.",
" o#%@%%#$$+%%#%%*@%%%%#$#%%%#%#%+%OX++%+%*%#%@$$*%%%#$$#*%$%&=+.",
" o#%@%%#$$+%%#%%*@%%%%#$#%%#%%#%+%+#+%%+%*%#%@$$*%%%#$$#*%$%&=+.",
" o#%@%%#$$+%%#%%*@%%%%#$#%%#%%#%+%+#+%%+%*%#%@$$*%%%#$$#*%$%&=+.",
" o#%@%%#$$+%%#%%*@%%%%#$$#%#%%#%+%+#O%%+%*%#%@$$*%%%#$$#*%$%&=+.",
" o#%@%%#$$+%%#%%*@%%%%#$$#%#%%#%+%+#+%%+%*%#%@$$*%%%#$$#*%$%&=+.",
" o#%@%%#$$+%%#%%*@%%%%#$$#%#%%#%+%+#O%+%%*%#%@$$*%%%#$$#*%$%&=+.",
" o#%@%%#$$+%%#%%*@%%%%#$$#%#%%#%+%+++%+%%*%#%@$$*%%%#$$#*%$%&=+.",
" o#%@%%#$$+%%#%%*@%%%%#$$#%#%%#%%+%+%%+%%$%#%@$$*%%%#$$#*%$%&=+.",
" o#%@%%#$$+%%#%%*@%%%%#$$#%#%%#%%+%%%%+%%$%#%@$$*%%%#$$#*%$%&=+.",
" o#%@%%#$$+%%#%%*@%%%#$$$#%#%%#%%%+%%%+%%$%#%@$$*%%%#$$#*%$%&=+.",
" o#%@%%#$$+%%#%%*@%%%#$$$#%#%%#%%%+%%%+%@$%#%@$$*%%%#$$#*%$%&=+.",
" o#%@%#$$$+%%#%%*@%%%#$$#%%#%%#%%%%+++%%$$%#%@$$*%%#$$$#*%$%&=+.",
" o#%@%#$$$+%%#%%*@%%%#$$#%%#%%#%%@%%%%%@$$%#%@$$*%%#$$$#*%$%&=+.",
" o#%@%#$$$+%%#%%*@%%%#$$#%%#%%#%%@@%%%%@$$%#%@$$*%%#$$$#*%$%&=+.",
" o#%@%#$$$+%%#%%*@%%%#$$#%%#%%#%%%@%%%%@$$%#%@$$*%%#$$$#*%$%&=+.",
" o#%@%#$$$+%%#%%*@%%%#$$#%%%#%%#%%%$%%@$$%%#%@$$%%%#$$$#*%$%&=+.",
" o#%@%#$$$+%%#%%*@%%%#$$#%%%#%%%#%%$@%@$$%#%%@$$%%%#$$$#*%$%&=+.",
" o#%@%#$$$+%%#%%*@%%%#$$#%%%#%%%#%%$$%$$%%#%%@$$%%%#$$$#*%$%&=+.",
" o#%@%#$$$+%%#%%*@%%%#$$#%%%#%%%#%%$$$$$%%#%%@$$%%%#$$$#*%$%&=+.",
" o#%@%#$$$+%%#%%*@%%%#$$#%%%#%%%%#%%$$$$%%#%%@$$%%%#$$$#*%$%&=+.",
" o#%@%#$$$+%%#%%*@%%%#$$#%%%#%%%%#%%$$%$%%#%%@$$%%%#$$$#*%$%&=+.",
" o#%@%#$$$+%%#%%*@%%%#$$#%%%#%%%%#%%$$$$%%#%%@$$%%%#$$$#*%$%&=+.",
" o#%@%#$$$+%%#%%*@%%%#$$#%%%#%%%%#%%$$$%%%#%%@$$%%%#$$$#*%$%&=+.",
" o#%@%#$$$+%%#%%*@%%%#$$#%%%#%*%%#%%$$$%%%#%%@$$%%%#$$$#*%$%&=+.",
" o#%@%#$$$+%%#%%*@%%%#$$#%%%#%*%%#%%%$$%%%#%%@$$%%%#$$$#*%$%&=+.",
" o#%@%#$$$+%%#%%*@%%%#$$#%%%#%*%%#%%%$$%%%#%%@$$%%%#$$$#*%$%&=+.",
" o#%@%%#$$+%%#%%*@%%%#$$#%%%#%*%%#%%%$$%%%#%%@$$%%%#$$$#*%$%&=+.",
" o#%@%%#$$+%%#%%*@%%%#$$#%%%#%*%%#%%%$$%%%#%%@$$%%%#$$$#*%$%&=+.",
" o#%@%%#$$+%%%#%*@%%%#$$#%%%#%*%%#%%%$$%%%#%%@$$%%%#$$$#*%$%&=+.",
" o#%@%%#$$+%%%#%*@%%%%#$$#%%#%*%%#%%%$$%%%#%%@$$%%%#$$$#*%$%&=+.",
" o#%@%%#$$+%%%#%*@%%%%#$$#%%#%*%%#%%%$$%%%#%%@$$%%%#$$$#*%$%&=+.",
" o#%@%%#$$+%%%#%*@%%%%#$$#%%#%*%%#%%%$$%%%#%%@$$%%%#$$$#*%$%&=+.",
" o#%@%%#$$+%%%#%*@%%%%#$$#%%#%*%%#%%%$$%%%#%%@$$%%%#$$$#*%$%&=+.",
" o#%@%%#$$+%%%#%*@%%%%#$$#%%#%*%%#%%%$$%%%#%%@$$%%%#$$$#*%$%&=+.",
" o#%@%%#$$+%%%#%*@%%%%#$$#%%#%*%%%#%%$$%%%#%%@$$%%%#$$$#*%$%&=+.",
" o#%@%%#$$+%%%#%*@%%%%#$$#%%#%*%%%#%%$$%%%#%%@$$%%%#$$$#*%$%&=+.",
" o#%@%%#$$+%%%#%*@%%%%#$$#%%#%*%%%#%%$$%%%#%%@$$%%%#$$$#*%$%&=+.",
" o#%@%%#$$+%%%#%*@%%%%#$$#%%#%*%%%#%%$$%%%#%%@$$%%%#$$$#*%$%&=+.",
" o#%@%%#$$+%%%#%*@%%%%#$#%%%#%%%%%#%%$*%%#%%%@$$%%%#$$$#*%$%&=+.",
" o#%@%%#$$+%%%#%*@%%%#$$#%%%#%%%%%#%%$*%%%#%%@$$*%%#$$$#*%$%&=+.",
" o#%@%%#$$+%%%#%*@%%%#$$#%%%#%%%%%#%%$$%%%#%%@$$*%%#$$$#*%$%&=+.",
" o#%@%%#$$+%%%#%*@%%%#$$#%%%#%%%%#%%%%$$%%#%%@$$*%%#$$$#*%$%&=+.",
" o#%@%%#$$+%%#%%*@%%%#$$#%%%#%%%#%%#%%$$%%#%%@$$*%%#$$$#*%$%&=+.",
" o#%@%%#$$+%%#%%*@%%%#$$#%%%#%%%#%%##%$$%%#%%@$$*%%#$$$#*%$%&=+.",
" o#%@%%#$$+%%#%%*@%%%#$$#%%%#%%%#%%##%$$%%#%%@$$*%%#$$$#*%$%&=+.",
" o#%@%%#$$+%%#%%*@%%%%#$#%%%#%%#%%#%#%$$%%#%%@$$*%%#$$$#*%$%&=+."
};
